<svg width="117" height="121" viewBox="0 0 117 121" fill="none" xmlns="http://www.w3.org/2000/svg">
<path d="M58.2727 114.124C90.4057 114.124 116.455 88.7544 116.455 57.4593C116.455 26.1642 90.4057 0.794373 58.2727 0.794373C26.1398 0.794373 0.0909119 26.1642 0.0909119 57.4593C0.0909119 88.7544 26.1398 114.124 58.2727 114.124Z" fill="#BCBCBC"/>
<path opacity="0.2" d="M64.7815 26.0408L55.8358 41.8302L37.6225 84.6362L29.9078 106.857L30.0467 106.992C38.6812 111.665 48.3949 114.119 58.2727 114.124C70.9611 114.112 83.2975 110.06 93.4023 102.587C103.507 95.113 110.826 84.6271 114.245 72.7265L64.7815 26.0408Z" fill="url(#paint0_linear_3_499)"/>
<path opacity="0.15" d="M116.385 55.6151C116.036 70.4048 109.761 84.475 98.9028 94.8195C88.0442 105.164 73.4624 110.963 58.2727 110.976C43.1766 110.967 28.6753 105.243 17.8319 95.0135C6.9884 84.7844 0.651765 70.8509 0.160356 56.1562C0.132071 56.5904 0.108921 57.0249 0.0909119 57.4597C0.0909119 72.4881 6.22076 86.901 17.132 97.5277C28.0432 108.154 42.842 114.124 58.2727 114.124C73.7035 114.124 88.5023 108.154 99.4135 97.5277C110.325 86.901 116.455 72.4881 116.455 57.4597C116.442 56.8445 116.419 56.2296 116.385 55.6151Z" fill="#BA3535"/>
<path d="M99.7301 119.466L91.6124 114.246L48.2971 41.1781L55.823 36.9463L99.1488 110.032L99.7301 119.466Z" fill="#161032" stroke="#BCBCBC"/>
<path d="M93.8283 51.1375C93.8283 63.7557 89.9781 66.7491 85.2928 72.0812C82.8712 74.7986 80.0285 77.1058 76.7646 78.8488C72.3425 81.2587 65.6194 82.5917 60.197 82.5917C54.7747 82.5917 49.6683 81.2073 45.2989 78.8488C42.1111 76.348 35.6465 85.7921 39.9292 87.0302C45.9306 90.3117 52.8796 92.0881 60.2497 92.0881C67.6198 92.0881 76.1855 90.3117 82.1868 87.0302C85.3981 85.2871 88.3462 83.1338 90.9257 80.6726C98.717 73.2895 103.613 62.6231 103.613 51.1897C100.289 51.1582 96.7761 51.1897 93.8283 51.1582V51.1375Z" fill="#161032"/>
<path d="M17.3935 110.032L60.7193 36.9463L68.2453 41.1781L24.9299 114.246L16.8123 119.466L17.3935 110.032Z" fill="#161032" stroke="#BCBCBC"/>
<path d="M68.3376 35.4235H64.7374V26.0291V25.9788H58.2464H51.8081V26.0291V35.4235H48.1553C44.8442 35.4235 42.1111 38.0883 42.1111 41.2763V56.6877H42.1637C42.1111 57.1939 42.4264 57.7505 43.1098 58.4082L55.2506 68.8376C56.0916 69.6473 57.1953 70.0519 58.2464 70.0519V70.0016L58.299 70.0519C59.4028 70.0519 60.5065 69.6473 61.2948 68.8376L73.4357 58.4082C74.119 57.7505 74.3818 57.1433 74.3818 56.6877H74.4343V41.327C74.3818 38.0886 71.7013 35.4235 68.3376 35.4235Z" fill="#161032"/>
<path d="M58.2938 54.3116H58.2517C54.714 54.3116 51.8081 51.5093 51.8081 48.0574C51.8081 44.6053 54.714 41.8029 58.2517 41.8029V41.721L58.2938 41.8029C61.8315 41.8438 64.7374 44.6053 64.7374 48.0574C64.7374 51.5093 61.8315 54.271 58.2938 54.3116Z" fill="url(#paint1_radial_3_499)"/>
<defs>
<linearGradient id="paint0_linear_3_499" x1="45.3434" y1="35.4234" x2="101.988" y2="93.5849" gradientUnits="userSpaceOnUse">
<stop stop-color="#161032"/>
<stop offset="1" stop-opacity="0"/>
</linearGradient>
<radialGradient id="paint1_radial_3_499" cx="0" cy="0" r="1" gradientUnits="userSpaceOnUse" gradientTransform="translate(58.2727 48.0149) scale(6.46465 6.29531)">
<stop stop-color="#ACACAC"/>
<stop offset="1" stop-color="#CBCBCB"/>
</radialGradient>
</defs>
</svg>
