<svg width="300" height="300" viewBox="0 0 300 300" fill="none" xmlns="http://www.w3.org/2000/svg">
<path d="M150 300C232.843 300 300 232.843 300 150C300 67.1573 232.843 0 150 0C67.1573 0 0 67.1573 0 150C0 232.843 67.1573 300 150 300Z" fill="white"/>
<path d="M106.357 134.114C106.357 136.495 106.631 138.423 107.099 139.822C107.646 141.259 108.31 142.809 109.248 144.472C109.599 144.963 109.717 145.493 109.717 145.946C109.717 146.589 109.326 147.232 108.467 147.874L104.287 150.558C103.779 150.899 103.193 151.125 102.568 151.125C101.904 151.125 101.24 150.785 100.576 150.218C99.6775 149.273 98.8963 148.29 98.1932 147.194C97.451 145.946 96.7479 144.699 96.1229 143.413C90.9276 149.349 84.4042 152.297 76.5527 152.297C70.9668 152.297 66.5137 150.747 63.2715 147.685C60.0293 144.585 58.3496 140.465 58.3496 135.323C58.3496 129.842 60.3418 125.419 64.4043 122.054C68.4668 118.69 73.8574 117.026 80.6933 117.026C82.9589 117.026 85.3026 117.215 87.7245 117.555C90.1854 117.896 92.7245 118.387 95.3807 118.992V114.304C95.3807 109.428 94.326 105.987 92.2557 104.022C90.1464 102.018 86.5526 101.073 81.4355 101.073C79.0917 101.073 76.7089 101.338 74.248 101.905C71.7871 102.472 69.4043 103.19 67.0605 104.097C66.3184 104.438 65.5371 104.702 64.7168 104.929C64.3652 105.042 64.0137 105.08 63.6621 105.118C62.7246 105.118 62.2559 104.475 62.2559 103.114V99.9766C62.2559 98.9559 62.3731 98.162 62.7246 97.7084C63.2324 97.1413 63.8574 96.6499 64.5996 96.3475C66.9434 95.1755 69.7168 94.2304 72.9589 93.4365C76.3574 92.6049 79.8339 92.189 83.3495 92.2268C91.2792 92.2268 97.0604 93.9658 100.771 97.4438C104.443 100.922 106.279 106.176 106.279 113.284V134.151L106.357 134.114ZM79.3652 143.905C81.5527 143.905 83.8183 143.527 86.2011 142.733C88.5839 141.977 90.7323 140.54 92.5291 138.612C93.5838 137.403 94.4041 136.042 94.7948 134.492C95.1854 132.942 95.4588 131.089 95.4588 128.897V126.213C93.4276 125.721 91.3963 125.381 89.326 125.116C87.2557 124.852 85.1464 124.738 83.0761 124.738C78.623 124.738 75.3417 125.57 73.1543 127.309C70.9668 129.048 69.9121 131.505 69.9121 134.718C69.9121 137.743 70.6933 140.011 72.373 141.523C73.9746 143.149 76.2792 143.905 79.3652 143.905ZM132.763 150.861C131.552 150.861 130.771 150.672 130.224 150.218C129.677 149.84 129.209 148.933 128.818 147.723L113.193 97.973C112.881 97.1413 112.685 96.2718 112.607 95.4024C112.607 94.3817 113.154 93.7768 114.209 93.7768H120.732C121.982 93.7768 122.841 93.9658 123.31 94.4195C123.857 94.7975 124.248 95.7048 124.638 96.9523L135.81 139.557L146.201 96.9523C146.552 95.667 146.943 94.8353 147.451 94.4195C148.232 93.928 149.169 93.7012 150.107 93.7768H155.458C156.708 93.7768 157.607 93.9658 158.115 94.4195C158.623 94.7975 159.13 95.7048 159.365 96.9523L169.872 140.087L181.396 96.9523C181.786 95.667 182.255 94.8353 182.724 94.4195C183.505 93.928 184.404 93.7012 185.302 93.7768H191.513C192.568 93.7768 193.193 94.306 193.193 95.4024C193.193 95.7426 193.115 96.045 193.036 96.4231C192.919 96.9901 192.763 97.5194 192.568 98.0486L176.552 147.799C176.161 149.084 175.693 149.916 175.146 150.294C174.404 150.747 173.505 150.974 172.607 150.936H166.865C165.615 150.936 164.755 150.747 164.208 150.294C163.701 149.84 163.232 149.008 162.958 147.723L152.646 106.214L142.412 147.685C142.06 148.971 141.67 149.802 141.162 150.256C140.615 150.71 139.677 150.899 138.505 150.899L132.763 150.861ZM218.232 152.6C214.755 152.6 211.318 152.222 207.997 151.428C204.677 150.672 202.099 149.802 200.341 148.857C199.286 148.29 198.544 147.647 198.271 147.043C197.997 146.476 197.88 145.871 197.88 145.228V141.939C197.88 140.578 198.427 139.935 199.404 139.935C199.794 139.935 200.185 140.011 200.614 140.124C201.005 140.238 201.63 140.502 202.294 140.767C204.56 141.75 207.021 142.506 209.599 143.035C212.255 143.565 214.833 143.791 217.528 143.791C221.708 143.791 224.989 143.073 227.255 141.674C229.442 140.389 230.771 138.045 230.732 135.55C230.771 133.887 230.146 132.261 228.935 131.051C227.724 129.842 225.458 128.745 222.216 127.687L212.568 124.776C207.724 123.302 204.13 121.109 201.943 118.236C199.794 115.552 198.622 112.263 198.622 108.898C198.622 106.214 199.247 103.833 200.419 101.753C201.63 99.712 203.193 97.8974 205.224 96.4609C207.216 94.9865 209.482 93.8902 212.138 93.0963C214.794 92.3402 217.607 92 220.536 92C221.982 92 223.544 92.0756 224.989 92.2646C226.513 92.4536 227.919 92.7183 229.325 92.9829C230.653 93.3231 231.942 93.6256 233.114 94.0036C234.325 94.3816 235.263 94.7597 235.927 95.1755C236.708 95.5536 237.411 96.1206 237.919 96.8011C238.349 97.4438 238.544 98.162 238.505 98.9181V101.942C238.505 103.303 237.958 104.022 236.981 104.022C236.083 103.908 235.224 103.644 234.442 103.266C230.419 101.564 226.083 100.695 221.669 100.771C217.88 100.771 214.872 101.338 212.802 102.585C210.732 103.795 209.677 105.685 209.677 108.294C209.677 110.108 210.341 111.658 211.669 112.868C212.997 114.078 215.458 115.325 218.974 116.421L228.427 119.294C233.192 120.769 236.669 122.848 238.739 125.494C240.81 128.141 241.786 131.165 241.786 134.492C241.786 137.251 241.2 139.784 240.067 141.977C238.856 144.169 237.255 146.097 235.224 147.647C233.153 149.273 230.692 150.407 227.841 151.239C224.755 152.146 221.63 152.6 218.232 152.6ZM230.81 183.864C208.935 199.514 177.138 207.794 149.794 207.794C111.474 207.794 76.9433 194.071 50.8888 171.275C48.8185 169.46 50.6934 167.041 53.1544 168.44C81.3573 184.28 116.162 193.882 152.138 193.882C176.435 193.882 203.075 189.005 227.646 178.949C231.278 177.361 234.403 181.293 230.81 183.864ZM239.911 173.846C237.099 170.368 221.396 172.182 214.286 173.014C212.177 173.279 211.825 171.464 213.778 170.103C226.278 161.597 246.825 164.054 249.247 166.89C251.63 169.801 248.583 189.685 236.864 199.212C235.067 200.686 233.349 199.93 234.13 198.002C236.786 191.613 242.724 177.248 239.911 173.846Z" fill="#100F0F"/>
</svg>
