<svg width="250" height="250" viewBox="0 0 250 250" fill="none" xmlns="http://www.w3.org/2000/svg">
<rect width="250" height="250" rx="125" fill="#D9D9D9"/>
<path d="M129 205C108.028 205 90.2847 201.771 75.7708 195.312C61.2569 188.854 54 180.972 54 171.667V88.3333C54 79.1667 61.3264 71.3194 75.9792 64.7917C90.6319 58.2639 108.306 55 129 55C149.694 55 167.368 58.2639 182.021 64.7917C196.674 71.3194 204 79.1667 204 88.3333V171.667C204 180.972 196.743 188.854 182.229 195.312C167.715 201.771 149.972 205 129 205ZM129 103.333C140.944 103.333 153.201 101.493 165.771 97.8125C178.34 94.1319 186.431 90 190.042 85.4167C186.292 80.9722 178.132 76.875 165.562 73.125C152.993 69.375 140.806 67.5 129 67.5C116.778 67.5 104.486 69.3056 92.125 72.9167C79.7639 76.5278 71.6389 80.6944 67.75 85.4167C71.6389 90.2778 79.6944 94.4792 91.9167 98.0208C104.139 101.562 116.5 103.333 129 103.333ZM128.792 147.917C134.625 147.917 140.458 147.604 146.292 146.979C152.125 146.354 157.715 145.417 163.062 144.167C168.41 142.917 173.514 141.389 178.375 139.583C183.236 137.778 187.611 135.764 191.5 133.542V101.25C187.472 103.472 183.028 105.486 178.167 107.292C173.306 109.097 168.167 110.625 162.75 111.875C157.333 113.125 151.778 114.097 146.083 114.792C140.389 115.486 134.625 115.833 128.792 115.833C122.958 115.833 117.125 115.486 111.292 114.792C105.458 114.097 99.8681 113.125 94.5208 111.875C89.1736 110.625 84.1042 109.097 79.3125 107.292C74.5208 105.486 70.25 103.472 66.5 101.25V133.542C70.25 135.764 74.4861 137.778 79.2083 139.583C83.9306 141.389 88.9653 142.917 94.3125 144.167C99.6597 145.417 105.25 146.354 111.083 146.979C116.917 147.604 122.819 147.917 128.792 147.917ZM129 192.5C135.667 192.5 142.542 191.91 149.625 190.729C156.708 189.549 163.201 187.986 169.104 186.042C175.007 184.097 180.007 181.944 184.104 179.583C188.201 177.222 190.667 174.792 191.5 172.292V146.25C187.611 148.472 183.236 150.451 178.375 152.187C173.514 153.924 168.41 155.417 163.062 156.667C157.715 157.917 152.16 158.854 146.396 159.479C140.632 160.104 134.764 160.417 128.792 160.417C122.819 160.417 116.917 160.104 111.083 159.479C105.25 158.854 99.6597 157.917 94.3125 156.667C88.9653 155.417 83.9306 153.924 79.2083 152.187C74.4861 150.451 70.25 148.472 66.5 146.25V172.5C67.1944 174.861 69.5556 177.257 73.5833 179.687C77.6111 182.118 82.6111 184.271 88.5833 186.146C94.5556 188.021 101.083 189.549 108.167 190.729C115.25 191.91 122.194 192.5 129 192.5Z" fill="black"/>
</svg>
