<svg width="300" height="300" viewBox="0 0 300 300" fill="none" xmlns="http://www.w3.org/2000/svg">
<rect width="300" height="300" rx="150" fill="#D9D9D9"/>
<path d="M76.3529 106.588C78.6345 105.334 83.3119 103.737 86.6203 102.825C89.8146 101.912 93.3511 101.114 94.2637 101C95.1764 101 96.3172 101.342 96.8876 101.798C97.3439 102.368 95.7468 104.649 89.1301 111.264L93.3511 115.597C95.7468 117.878 97.6862 120.159 97.6862 120.729C97.6862 121.185 95.7468 121.869 93.4652 122.211C91.0695 122.554 86.9625 124.15 84.2245 125.633C81.4866 127.229 77.836 130.65 75.8966 133.273C74.0713 135.896 72.36 139.318 72.0178 140.914C71.6755 142.511 68.8235 146.388 60.0392 155.169L50 144.905L51.5971 138.063C52.5098 134.3 54.9055 128.484 56.959 125.062C59.0125 121.755 63.2335 116.738 66.3137 113.887C69.508 111.036 73.9572 107.728 76.3529 106.588Z" fill="black"/>
<path d="M93.6933 111.264L98.7129 106.132C102.82 102.026 104.303 101.228 106.699 101.684C108.296 102.026 111.946 103.053 114.798 103.965C117.651 104.763 122.214 106.93 125.066 108.755C127.918 110.579 134.078 116.167 138.756 121.413C143.433 126.545 147.426 131.221 147.654 131.905C147.768 132.475 145.144 136.238 141.95 140.23C138.642 144.335 135.675 147.642 135.333 147.757C134.991 147.757 130.656 143.081 125.636 137.265C118.221 128.712 115.255 126.203 109.665 123.694C105.9 121.983 100.766 118.448 93.6933 111.264Z" fill="black"/>
<path d="M179.255 106.36C181.764 105.105 186.442 103.395 189.522 102.597C192.716 101.798 195.454 101.114 195.797 101.114C196.139 101 198.649 103.281 206.634 111.264L201.501 116.395C198.649 119.246 194.542 122.097 192.374 122.782C190.207 123.58 186.898 125.177 184.959 126.659C183.133 128.028 176.403 135.098 158.72 155.739L158.15 143.195H151.305C147.54 143.195 144.232 142.739 143.889 142.054C143.547 141.484 143.889 140.572 144.688 140.116C145.486 139.546 150.734 133.844 156.324 127.229C161.914 120.615 168.303 113.773 170.584 112.062C172.866 110.237 176.745 107.728 179.255 106.36Z" fill="black"/>
<path d="M206.862 107.044C204.581 104.649 202.984 102.254 203.44 101.798C203.896 101.342 206.406 101.228 208.916 101.684C211.426 102.14 215.533 103.167 218.043 104.079C220.552 104.991 225.116 107.272 228.196 109.325C231.276 111.378 235.611 115.027 237.893 117.65C240.174 120.159 243.483 125.291 245.308 129.054C247.019 132.703 248.731 138.063 249.073 140.914C249.529 145.704 249.301 146.388 240.288 155.169L234.584 149.467C231.504 146.388 228.424 141.94 227.854 139.774C227.169 137.607 225.23 133.958 223.404 131.791C221.579 129.624 217.358 126.431 213.936 124.606C210.513 122.896 206.634 121.527 205.265 121.527C203.782 121.527 202.641 121.185 202.641 120.729C202.641 120.159 204.581 117.878 211.198 111.264L206.862 107.044Z" fill="black"/>
<path d="M112.859 175.012C115.369 173.758 121.529 167.6 128.26 159.731L139.326 146.73L154.727 146.616L154.613 160.871L142.977 173.872C136.588 181.056 129.857 188.127 127.918 189.495C126.093 190.978 122.214 193.145 119.362 194.399C116.51 195.653 111.718 197.25 108.524 197.934C105.444 198.618 102.135 198.847 101.451 198.504C100.424 198.162 101.679 196.338 109.665 188.811L104.873 184.249C102.135 181.74 99.9678 179.46 99.9678 179.118C99.9678 178.775 101.907 178.205 104.303 177.863C106.585 177.521 110.463 176.153 112.859 175.012Z" fill="black"/>
<path d="M60.1533 159.617L64.8306 154.827L69.3939 150.037L71.1051 155.967C72.0178 159.275 73.9572 163.836 75.5543 166.231C77.0374 168.512 80.8021 172.047 83.7682 173.986C86.7343 175.81 89.9286 177.407 90.9554 177.293C91.868 177.293 95.1764 179.916 104.075 188.697L93.8074 198.847L86.9625 197.136C83.1978 196.224 77.2656 193.829 73.9572 191.776C70.5347 189.837 65.5151 185.618 62.7772 182.425C59.9251 179.346 56.5027 174.214 55.0196 171.021C53.5365 167.942 51.8253 162.696 51.1408 159.389C50.4563 156.081 50.1141 152.774 50.5704 151.976C51.0267 150.95 52.738 152.09 60.1533 159.617Z" fill="black"/>
<path d="M224.659 166.345C226.37 163.95 228.31 159.389 229.108 156.195L230.363 150.493L239.832 160.187L244.395 155.625C246.905 153.116 249.301 151.52 249.757 151.976C250.214 152.432 249.985 155.625 249.415 159.046C248.731 162.468 246.905 168.17 245.194 171.591C243.483 175.012 239.376 180.714 235.839 184.135C232.417 187.671 227.055 191.776 223.861 193.259C220.78 194.741 215.647 196.68 206.748 198.732L196.481 188.697L201.957 182.995C204.923 179.916 208.346 177.293 209.372 177.293C210.513 177.293 213.707 175.924 216.445 174.1C219.297 172.275 222.948 168.854 224.659 166.345Z" fill="black"/>
<path d="M152.674 167.371C152.788 166.915 155.412 163.266 158.72 159.389C161.914 155.511 164.994 152.432 165.337 152.546C165.793 152.66 170.128 157.336 175.034 163.038C181.65 170.451 185.529 173.872 189.75 175.81C192.83 177.293 196.709 178.433 198.306 178.433C201.044 178.433 200.93 178.661 190.891 188.697L195.454 193.259C197.964 195.767 199.561 198.162 199.105 198.618C198.649 199.189 195.226 198.847 191.69 197.934C188.153 197.136 182.563 195.083 179.483 193.601C176.289 192.004 172.182 189.381 170.242 187.671C168.303 186.074 163.511 181.056 159.633 176.495C155.868 171.933 152.674 167.828 152.674 167.371Z" fill="black"/>
</svg>
