<svg width="100" height="100" viewBox="0 0 100 100" fill="none" xmlns="http://www.w3.org/2000/svg">
<rect width="100" height="100" rx="46" fill="white"/>
<path d="M47.9596 27.6132C47.9471 22.9628 47.9846 19.125 48.0471 19.0875C48.1096 19.0375 50.6221 19 59.1096 19V44.8772C59.1096 59.1158 59.097 70.7543 59.0845 70.7543C59.0595 70.7543 57.897 70.9418 56.4846 71.1919C55.0721 71.4294 53.1346 71.7044 52.1721 71.8044C51.2096 71.9169 49.3846 72.0669 48.1096 72.1419C46.7845 72.2294 44.7845 72.2544 43.4221 72.2169C42.1221 72.1669 40.4096 72.0544 39.6346 71.9419C38.8721 71.8419 37.4596 71.5544 36.5221 71.3044C35.5721 71.0668 34.2846 70.6543 33.6721 70.4043C33.0596 70.1418 32.1096 69.6917 31.5596 69.3792C31.0221 69.0667 30.1221 68.4541 29.5721 68.0041C29.0096 67.5541 28.1721 66.7415 27.7096 66.1914C27.2471 65.6414 26.6346 64.8038 26.3596 64.3163C26.0846 63.8287 25.6721 62.9912 25.4221 62.4411C25.1846 61.8911 24.8221 60.791 24.6221 60.0034C24.4221 59.2159 24.1971 57.9783 24.1096 57.2532C24.0096 56.4031 23.9721 55.0655 24.0221 53.4404C24.0721 51.5402 24.1596 50.6401 24.3596 49.6901C24.5096 49.0025 24.7971 47.9274 25.0096 47.3149C25.2221 46.7023 25.6096 45.7397 25.8846 45.1897C26.1596 44.6396 26.6971 43.7146 27.0721 43.127C27.4846 42.4895 28.2721 41.5644 29.0346 40.8018C29.7846 40.0643 30.8096 39.2142 31.5471 38.7266C32.2346 38.2641 33.1971 37.7141 33.6721 37.489C34.1471 37.2765 34.9721 36.939 35.4846 36.7515C35.9971 36.564 37.0721 36.2639 37.8596 36.0764C38.6471 35.9014 39.9971 35.6889 40.8596 35.6139C41.7346 35.5389 43.1595 35.5014 44.1096 35.5389C45.0345 35.5889 46.2845 35.7139 47.9846 36.0639L47.9596 27.6132Z" fill="#141405"/>
<path d="M65.7971 30.5635L65.7596 24.8505L65.7346 19.125H76.8596V30.626L65.7971 30.5635Z" fill="#141405"/>
<path d="M65.4971 67.329C65.597 66.379 65.6596 61.291 65.6971 51.1027L65.7471 36.2514H76.847V51.6027C76.847 60.766 76.7971 67.6541 76.722 68.6916C76.6595 69.6667 76.5095 71.0918 76.4095 71.8794C76.2971 72.6795 76.097 73.8296 75.9595 74.4421C75.8095 75.0672 75.5221 76.0548 75.3221 76.6298C75.1221 77.2174 74.6721 78.2549 74.3221 78.9425C73.9846 79.6301 73.4095 80.6176 73.0596 81.1302C72.7096 81.6552 71.9346 82.5553 71.347 83.1303C70.7595 83.7179 69.822 84.518 69.2845 84.9055C68.7346 85.293 67.647 85.9806 66.847 86.4306C66.0596 86.8807 65.3345 87.2557 65.222 87.2557C65.1221 87.2682 62.7721 86.1806 60.0096 84.8555C57.2346 83.5304 54.972 82.4178 54.972 82.3803C54.972 82.3553 55.4971 82.0428 56.1346 81.7177C56.7721 81.3802 57.7346 80.8302 58.2845 80.5051C58.8345 80.1676 59.7595 79.5175 60.347 79.055C60.9221 78.58 61.7346 77.7674 62.1595 77.2424C62.572 76.7173 63.1471 75.8422 63.4346 75.3047C63.722 74.7672 64.1595 73.7296 64.397 73.0045C64.647 72.2919 64.9595 71.0293 65.097 70.1918C65.2346 69.3667 65.4095 68.0791 65.4971 67.329Z" fill="#141405"/>
<path d="M41.547 44.8395C42.0345 44.727 42.5595 44.6145 42.7345 44.577C42.9095 44.552 43.747 44.5395 44.6095 44.552C45.6345 44.577 46.4845 44.677 47.9845 45.0646V62.9411L46.7345 63.0911C46.047 63.1786 44.947 63.2536 44.297 63.2536C43.647 63.2536 42.697 63.1911 42.197 63.1161C41.7095 63.0411 40.9095 62.8286 40.422 62.666C39.9345 62.491 39.1595 62.091 38.6845 61.766C38.2095 61.4534 37.597 60.9409 37.3345 60.6284C37.0595 60.3158 36.6345 59.6158 36.372 59.0657C36.097 58.5157 35.7845 57.7031 35.672 57.2531C35.547 56.778 35.4345 55.703 35.397 54.6279C35.3595 53.5528 35.3845 52.4527 35.472 51.9026C35.547 51.4151 35.7595 50.54 35.947 49.965C36.1345 49.4024 36.547 48.5399 36.8595 48.0648C37.1845 47.5773 37.772 46.8897 38.1845 46.5272C38.5845 46.1647 39.3095 45.6896 39.797 45.4521C40.2845 45.2271 41.0595 44.9396 41.547 44.8395Z" fill="#FDFFFE"/>
</svg>
