<svg width="300" height="300" viewBox="0 0 300 300" fill="none" xmlns="http://www.w3.org/2000/svg">
<rect width="300" height="300" rx="150" fill="#D9D9D9"/>
<path d="M256.702 139.98C256.162 139.55 251.092 135.73 240.422 135.73C237.604 135.74 234.791 135.98 232.012 136.45C229.942 122.28 218.232 115.38 217.712 115.07L214.842 113.42L212.952 116.14C210.591 119.797 208.866 123.827 207.852 128.06C205.942 136.15 207.102 143.74 211.212 150.24C206.252 153 198.292 153.68 196.682 153.74H64.9307C63.2774 153.743 61.6922 154.399 60.5212 155.567C59.3502 156.734 58.6886 158.317 58.6807 159.97C58.5281 171.511 60.4835 182.982 64.4507 193.821C68.9907 205.721 75.7408 214.491 84.5209 219.851C94.361 225.881 110.361 229.321 128.481 229.321C136.671 229.351 144.841 228.601 152.891 227.111C164.081 225.052 174.849 221.141 184.752 215.541C192.91 210.817 200.251 204.806 206.492 197.741C216.932 185.921 223.152 172.77 227.772 161.07H229.612C241.042 161.07 248.072 156.5 251.942 152.66C254.522 150.22 256.532 147.24 257.832 143.94L258.672 141.54L256.702 139.98Z" fill="black"/>
<path d="M77.1408 149.87H94.791C95.1994 149.87 95.5911 149.708 95.8799 149.419C96.1688 149.13 96.331 148.739 96.331 148.33V132.61C96.3323 132.408 96.2938 132.207 96.2176 132.02C96.1414 131.833 96.0291 131.662 95.887 131.518C95.745 131.374 95.5759 131.26 95.3896 131.181C95.2032 131.103 95.0032 131.062 94.801 131.06H77.1408C76.7324 131.06 76.3407 131.222 76.0519 131.511C75.7631 131.8 75.6008 132.192 75.6008 132.6V148.34C75.6008 149.18 76.2908 149.87 77.1408 149.87ZM101.471 149.87H119.121C119.53 149.87 119.921 149.708 120.21 149.419C120.499 149.13 120.661 148.739 120.661 148.33V132.61C120.664 132.408 120.626 132.206 120.551 132.019C120.475 131.831 120.363 131.66 120.22 131.515C120.078 131.371 119.908 131.257 119.721 131.179C119.534 131.1 119.334 131.06 119.131 131.06H101.471C101.267 131.059 101.065 131.098 100.876 131.175C100.688 131.253 100.516 131.367 100.372 131.511C100.228 131.655 100.114 131.827 100.036 132.015C99.9589 132.204 99.9197 132.406 99.921 132.61V148.34C99.931 149.18 100.621 149.87 101.471 149.87ZM126.171 149.87H143.821C144.23 149.87 144.622 149.708 144.91 149.419C145.199 149.13 145.361 148.739 145.361 148.33V132.61C145.363 132.408 145.324 132.207 145.248 132.02C145.172 131.833 145.06 131.662 144.917 131.518C144.775 131.374 144.606 131.26 144.42 131.181C144.234 131.103 144.034 131.062 143.831 131.06H126.171C125.763 131.06 125.371 131.222 125.082 131.511C124.794 131.8 124.631 132.192 124.631 132.6V148.34C124.631 149.18 125.321 149.87 126.171 149.87ZM150.571 149.87H168.222C168.631 149.87 169.024 149.708 169.314 149.42C169.605 149.131 169.769 148.74 169.772 148.33V132.61C169.773 132.406 169.734 132.204 169.656 132.015C169.579 131.827 169.465 131.655 169.321 131.511C169.176 131.367 169.005 131.253 168.816 131.175C168.628 131.098 168.426 131.059 168.222 131.06H150.571C150.163 131.06 149.771 131.222 149.483 131.511C149.194 131.8 149.031 132.192 149.031 132.6V148.34C149.031 149.18 149.721 149.87 150.571 149.87ZM101.471 127.25H119.121C119.971 127.25 120.661 126.55 120.661 125.7V109.98C120.661 109.572 120.499 109.18 120.21 108.891C119.921 108.602 119.53 108.44 119.121 108.44H101.471C101.062 108.44 100.669 108.602 100.379 108.89C100.088 109.179 99.9237 109.571 99.921 109.98V125.71C99.931 126.55 100.621 127.25 101.471 127.25ZM126.171 127.25H143.821C144.671 127.25 145.361 126.55 145.361 125.7V109.98C145.361 109.572 145.199 109.18 144.91 108.891C144.622 108.602 144.23 108.44 143.821 108.44H126.171C125.763 108.44 125.371 108.602 125.082 108.891C124.794 109.18 124.631 109.572 124.631 109.98V125.71C124.631 126.55 125.321 127.25 126.171 127.25ZM150.571 127.25H168.222C169.072 127.25 169.772 126.55 169.772 125.7V109.98C169.769 109.571 169.605 109.179 169.314 108.89C169.024 108.602 168.631 108.44 168.222 108.44H150.571C150.163 108.44 149.771 108.602 149.483 108.891C149.194 109.18 149.031 109.572 149.031 109.98V125.71C149.031 126.55 149.721 127.25 150.571 127.25ZM150.571 104.62H168.222C168.631 104.62 169.024 104.458 169.314 104.17C169.605 103.881 169.769 103.489 169.772 103.08V87.3398C169.769 86.9305 169.605 86.5388 169.314 86.2503C169.024 85.9617 168.631 85.7998 168.222 85.7998H150.571C150.163 85.7998 149.771 85.9621 149.483 86.2509C149.194 86.5397 149.031 86.9314 149.031 87.3398V103.07C149.031 103.93 149.721 104.62 150.571 104.62ZM175.202 149.87H192.852C193.261 149.87 193.654 149.708 193.944 149.42C194.235 149.131 194.399 148.74 194.402 148.33V132.61C194.403 132.406 194.364 132.204 194.287 132.015C194.209 131.827 194.095 131.655 193.951 131.511C193.807 131.367 193.635 131.253 193.447 131.175C193.258 131.098 193.056 131.059 192.852 131.06H175.202C174.793 131.06 174.402 131.222 174.113 131.511C173.824 131.8 173.662 132.192 173.662 132.6V148.34C173.662 148.542 173.702 148.742 173.779 148.928C173.857 149.114 173.97 149.284 174.113 149.426C174.256 149.568 174.426 149.68 174.613 149.757C174.8 149.833 175 149.872 175.202 149.87Z" fill="black"/>
</svg>
