<svg width="45" height="45" viewBox="0 0 45 45" fill="none" xmlns="http://www.w3.org/2000/svg">
<g id="Github">
<circle id="Ellipse 1" cx="22.5" cy="22.5" r="21.5" stroke="#8D5EFC" stroke-width="2"/>
<g id="Group">
<path id="Vector" fill-rule="evenodd" clip-rule="evenodd" d="M22.0001 7C13.1646 7 6 14.3447 6 23.405C6 30.6533 10.5845 36.8026 16.9419 38.9718C17.7415 39.1236 18.0351 38.6159 18.0351 38.1826C18.0351 37.7915 18.0202 36.4991 18.0134 35.1283C13.562 36.1207 12.6228 33.1927 12.6228 33.1927C11.8949 31.2965 10.8463 30.7924 10.8463 30.7924C9.39464 29.7742 10.9557 29.795 10.9557 29.795C12.5624 29.9108 13.4084 31.4856 13.4084 31.4856C14.8355 33.9936 17.1514 33.2685 18.0645 32.8494C18.208 31.789 18.6227 31.0654 19.0803 30.6558C15.5265 30.2408 11.7905 28.8342 11.7905 22.5483C11.7905 20.7573 12.4156 19.2938 13.4392 18.1449C13.273 17.7317 12.7254 16.0632 13.5941 13.8035C13.5941 13.8035 14.9377 13.3626 17.9953 15.4851C19.2715 15.1215 20.6403 14.9393 22.0001 14.9332C23.3598 14.9393 24.7296 15.1215 26.0083 15.4851C29.0623 13.3626 30.404 13.8035 30.404 13.8035C31.2748 16.0632 30.727 17.7317 30.5608 18.1449C31.5867 19.2938 32.2075 20.7572 32.2075 22.5483C32.2075 28.8491 28.4645 30.2366 24.9017 30.6426C25.4755 31.1518 25.9869 32.1502 25.9869 33.6806C25.9869 35.8756 25.9683 37.6422 25.9683 38.1826C25.9683 38.6192 26.2563 39.1307 27.0674 38.9696C33.4213 36.798 38 30.6509 38 23.405C38 14.3447 30.8364 7 22.0001 7Z" fill="#8D5EFC"/>
<path id="Vector_2" d="M12.0004 30.3648C11.9655 30.4465 11.8412 30.471 11.7282 30.415C11.6129 30.3613 11.5481 30.2498 11.5855 30.1677C11.6198 30.0835 11.7441 30.06 11.8591 30.1166C11.9746 30.1701 12.0404 30.2827 12.0004 30.3648ZM12.7818 31.0871C12.706 31.1599 12.5579 31.1261 12.4573 31.0111C12.3534 30.8964 12.334 30.743 12.4109 30.669C12.489 30.5964 12.6326 30.6303 12.7368 30.7452C12.8407 30.8612 12.861 31.0136 12.7818 31.0871ZM13.3178 32.0114C13.2204 32.0814 13.0612 32.0157 12.9629 31.8694C12.8656 31.7231 12.8656 31.5476 12.965 31.4772C13.0637 31.4069 13.2204 31.4701 13.3201 31.6153C13.4173 31.7642 13.4174 31.9396 13.3178 32.0114ZM14.2243 33.0818C14.1372 33.1812 13.9518 33.1546 13.816 33.0188C13.6773 32.8861 13.6385 32.6978 13.7258 32.5983C13.8139 32.4986 14.0004 32.5266 14.1372 32.6613C14.2751 32.7937 14.3171 32.9835 14.2243 33.0818ZM15.3959 33.4433C15.3576 33.5721 15.179 33.6307 14.9991 33.5759C14.8194 33.5195 14.7018 33.3685 14.7381 33.2383C14.7755 33.1085 14.9549 33.0475 15.1361 33.1061C15.3155 33.1622 15.4333 33.3121 15.3959 33.4433ZM16.7294 33.5965C16.7339 33.7323 16.5813 33.8448 16.3924 33.8473C16.2024 33.8515 16.0488 33.7417 16.0468 33.6082C16.0468 33.4711 16.1959 33.3596 16.3858 33.3564C16.5747 33.3525 16.7294 33.4616 16.7294 33.5965ZM18.0393 33.5445C18.0619 33.6769 17.9306 33.8129 17.7431 33.8491C17.5588 33.8839 17.3881 33.8022 17.3645 33.6709C17.3416 33.5352 17.4754 33.3992 17.6594 33.364C17.8473 33.3302 18.0154 33.4098 18.0393 33.5445Z" fill="#8D5EFC"/>
</g>
</g>
</svg>
