<svg width="45" height="45" viewBox="0 0 45 45" fill="none" xmlns="http://www.w3.org/2000/svg">
<g id="Instagram">
<path id="Vector" d="M17.839 22.5C17.839 19.9253 19.9257 17.8375 22.5006 17.8375C25.0754 17.8375 27.1633 19.9253 27.1633 22.5C27.1633 25.0748 25.0754 27.1625 22.5006 27.1625C19.9257 27.1625 17.839 25.0748 17.839 22.5ZM15.3184 22.5C15.3184 26.4666 18.5338 29.6819 22.5006 29.6819C26.4673 29.6819 29.6827 26.4666 29.6827 22.5C29.6827 18.5334 26.4673 15.3181 22.5006 15.3181C18.5338 15.3181 15.3184 18.5334 15.3184 22.5ZM28.2886 15.0333C28.2883 15.9603 29.0394 16.712 29.9664 16.7124C30.8934 16.7128 31.6451 15.9616 31.6455 15.0347C31.6459 14.1077 30.8947 13.356 29.9677 13.3556C29.0412 13.3561 28.2894 14.1068 28.2886 15.0333ZM16.8498 33.8847C15.4861 33.8226 14.7449 33.5954 14.2523 33.4035C13.5993 33.1493 13.1334 32.8465 12.6435 32.3573C12.1536 31.8682 11.8504 31.4027 11.5973 30.7497C11.4052 30.2574 11.1781 29.516 11.1161 28.1523C11.0483 26.678 11.0348 26.2352 11.0348 22.5001C11.0348 18.7651 11.0494 18.3234 11.1161 16.8479C11.1782 15.4843 11.407 14.7443 11.5973 14.2506C11.8515 13.5976 12.1543 13.1316 12.6435 12.6418C13.1327 12.1519 13.5982 11.8487 14.2523 11.5956C14.7447 11.4036 15.4861 11.1764 16.8498 11.1144C18.3241 11.0466 18.767 11.0331 22.5006 11.0331C26.2341 11.0331 26.6774 11.0478 28.153 11.1144C29.5167 11.1765 30.2567 11.4054 30.7505 11.5956C31.4035 11.8487 31.8694 12.1526 32.3593 12.6418C32.8492 13.131 33.1513 13.5976 33.4055 14.2506C33.5975 14.7429 33.8247 15.4843 33.8867 16.8479C33.9545 18.3234 33.968 18.7651 33.968 22.5001C33.968 26.2352 33.9545 26.6768 33.8867 28.1523C33.8246 29.516 33.5963 30.2571 33.4055 30.7497C33.1513 31.4027 32.8485 31.8686 32.3593 32.3573C31.8701 32.8461 31.4035 33.1493 30.7505 33.4035C30.2581 33.5955 29.5167 33.8227 28.153 33.8847C26.6787 33.9525 26.2358 33.966 22.5006 33.966C18.7653 33.966 18.3237 33.9525 16.8498 33.8847ZM16.734 8.59822C15.245 8.66603 14.2275 8.90212 13.3389 9.24787C12.4187 9.60491 11.6397 10.0839 10.8612 10.8611C10.0827 11.6383 9.60495 12.4185 9.24789 13.3387C8.90213 14.2278 8.66603 15.2447 8.59822 16.7337C8.52929 18.225 8.51351 18.7017 8.51351 22.5C8.51351 26.2983 8.52929 26.7751 8.59822 28.2664C8.66603 29.7554 8.90213 30.7722 9.24789 31.6613C9.60495 32.5809 10.0829 33.362 10.8612 34.1389C11.6396 34.9158 12.4187 35.3941 13.3389 35.7521C14.2292 36.0979 15.245 36.334 16.734 36.4018C18.2261 36.4696 18.7021 36.4865 22.5006 36.4865C26.299 36.4865 26.7758 36.4707 28.2671 36.4018C29.7563 36.334 30.7731 36.0979 31.6622 35.7521C32.5819 35.3941 33.3614 34.9161 34.1399 34.1389C34.9184 33.3617 35.3952 32.5809 35.7532 31.6613C36.099 30.7722 36.3362 29.7553 36.4029 28.2664C36.4707 26.7739 36.4865 26.2983 36.4865 22.5C36.4865 18.7017 36.4707 18.225 36.4029 16.7337C36.3351 15.2446 36.099 14.2273 35.7532 13.3387C35.3952 12.4191 34.9171 11.6396 34.1399 10.8611C33.3627 10.0827 32.5819 9.60491 31.6633 9.24787C30.7731 8.90212 29.7561 8.66491 28.2683 8.59822C26.7769 8.53041 26.3001 8.51352 22.5017 8.51352C18.7032 8.51352 18.2261 8.5293 16.734 8.59822Z" fill="#8D5EFC"/>
<circle id="Ellipse 1" cx="22.5" cy="22.5" r="21.5" stroke="#8D5EFC" stroke-width="2"/>
</g>
</svg>
