<svg width="664" height="642" viewBox="0 0 664 642" fill="none" xmlns="http://www.w3.org/2000/svg">
<path d="M265.767 378.933L190.633 391.833C201.529 422.304 222.038 448.406 249.067 466.2L277.9 396.367C278.572 395.231 278.986 393.962 279.113 392.648C279.239 391.335 279.076 390.01 278.633 388.767C277.9 382.767 271.833 378.933 265.767 378.933ZM294.6 281.8C301.433 281.8 307.5 276.5 307.5 269.667L311.3 193.767L296.1 196.8C269.486 203.06 245.079 216.45 225.5 235.533L288.5 280.3C290.8 281.033 292.333 281.8 294.6 281.8ZM261.2 331.133C262.273 329.899 263.088 328.462 263.595 326.907C264.102 325.352 264.291 323.712 264.151 322.082C264.011 320.453 263.545 318.868 262.78 317.422C262.015 315.977 260.968 314.699 259.7 313.667L203.533 263.567C186.959 291.481 179.274 323.779 181.5 356.167L255.133 334.933C258.167 334.167 259.7 333.4 261.2 331.133ZM309.767 357.7L330.3 367.567L350.767 357.7L356.1 335.667L341.667 317.467H318.9L304.467 335.667L309.767 357.7ZM354.567 276.5C358.367 281.8 365.933 282.567 371.233 279.533L433.467 235.533C410.396 212.477 380.131 198.009 347.7 194.533L352.267 271.2C352.261 272.195 352.463 273.18 352.859 274.092C353.255 275.004 353.836 275.824 354.567 276.5Z" fill="#C0C0C0"/>
<path d="M663.467 391.1L605.8 142.9C602.033 130.767 592.9 120.9 581.5 114.834L350.033 4.0002C343.967 0.966865 337.133 0.200195 331.067 0.200195C325 0.200195 318.167 0.200198 312.1 1.7002L80.5667 113.3C74.8652 115.907 69.8437 119.797 65.8943 124.666C61.9449 129.534 59.1747 135.25 57.8 141.367L0.866678 391.1C-1.39999 404 1.63334 416.9 9.20001 427.534L169.367 625.634C178.467 634.734 191.367 640.834 204.267 641.6H459.3C472.967 643.1 485.867 637.034 494.233 625.634L654.4 427.534C661.967 416.9 665 404 663.467 391.1ZM568.633 407.8C567.1 407.8 566.367 407.8 564.833 407.034C564.1 406.267 564.1 406.267 563.333 406.267C561.8 406.267 561.067 405.534 560.267 405.534C557.233 404.767 554.967 403.267 551.933 401.733C550.317 401.587 548.755 401.074 547.367 400.233H546.633C538.773 397.175 530.635 394.886 522.333 393.4H521.6C519.361 393.343 517.187 394.156 515.533 395.667C515.533 395.667 515.533 396.433 514.767 396.433L508.667 395.634C494.723 438.832 465.589 475.51 426.667 498.867L428.933 504.934C428.933 504.934 428.2 504.934 428.2 505.667C427.515 506.797 427.093 508.067 426.966 509.383C426.839 510.699 427.01 512.026 427.467 513.267C430.5 520.867 434.3 528.434 439.6 535.267V536.767C440.838 537.835 441.866 539.123 442.633 540.567C444.825 542.776 446.618 545.347 447.933 548.167C448.7 548.9 449.467 549.667 449.467 550.434C449.467 550.434 450.2 550.434 450.2 551.167C451.594 554.804 451.861 558.776 450.967 562.567C450.51 564.373 449.662 566.056 448.48 567.496C447.299 568.937 445.815 570.099 444.133 570.9C441.867 571.634 440.333 572.4 438.033 572.4C435.04 572.287 432.129 571.385 429.595 569.788C427.061 568.19 424.993 565.952 423.6 563.3C422.867 563.3 422.867 562.567 422.867 562.567C422.133 561.8 422.133 561.067 421.333 560.3C419.833 558.034 419.067 555 418.3 551.967L416.767 547.4V546.667C414.275 538.512 410.969 530.627 406.9 523.133C405.438 520.983 403.305 519.377 400.833 518.567C400.833 517.8 400.833 517.8 400.067 517.8L397.033 512.5C389.433 514.767 381.067 517.8 372.733 519.334C359.067 523.134 345.4 524.634 331.767 524.634C309.187 524.792 286.782 520.675 265.733 512.5L262.7 518.567C262.7 519.334 262.7 519.334 261.933 519.334C259.458 520.137 257.323 521.744 255.867 523.9C252.067 531.5 248.267 539.067 246 547.434L244.5 552C243.733 555.034 242.233 557.3 241.467 560.334C240.733 561.1 239.967 561.833 239.967 562.6C239.2 562.6 239.2 563.334 239.2 563.334C237.815 565.992 235.749 568.235 233.213 569.834C230.677 571.433 227.763 572.33 224.767 572.434C222.92 572.278 221.121 571.768 219.467 570.933C216.041 568.926 213.508 565.69 212.381 561.883C211.255 558.075 211.619 553.982 213.4 550.434C214.167 550.434 214.167 549.667 214.167 549.667C214.9 548.9 214.9 548.167 215.667 547.4C217.933 544.367 219.467 541.333 220.967 539.8C222.467 538.267 223.233 537.534 224 536V535.234C228.777 528.329 232.842 520.958 236.133 513.234C236.575 511.989 236.736 510.662 236.603 509.347C236.471 508.033 236.048 506.765 235.367 505.634C235.367 505.634 234.633 505.634 234.633 504.9L238.433 499.567C231.147 495.731 224.277 491.151 217.933 485.9C188.699 463.263 167.003 432.305 155.7 397.1L148.867 397.834C148.867 397.834 148.867 397.1 148.1 397.1C146.454 395.577 144.275 394.763 142.033 394.834H141.3C132.754 396.295 124.37 398.584 116.267 401.667H115.467C113.967 401.667 112.433 402.434 110.9 403.2C108.633 403.934 105.6 405.467 102.567 406.234C101.833 406.234 99.5333 405.5 99.5333 406.234C99.5333 407 99.5333 407 98.7667 407C97.2667 407.767 96.5 407.767 94.9667 407.767C91.5767 408.125 88.1713 407.247 85.3781 405.293C82.5848 403.339 80.5919 400.441 79.7667 397.134C79.388 395.187 79.4033 393.185 79.8117 391.245C80.2201 389.305 81.0133 387.466 82.1445 385.838C83.2756 384.209 84.7217 382.824 86.3974 381.764C88.073 380.704 89.944 379.991 91.9 379.667C92.6667 378.9 92.6667 378.9 93.4333 378.9C94.9333 378.9 95.7 378.167 96.4667 378.167C99.5 378.167 102.533 377.4 105.567 377.4C107.067 376.667 108.6 376.667 110.133 376.667C118.857 375.955 127.495 374.426 135.933 372.1C138.2 370.567 140.5 369.067 141.267 366.767C141.267 366.767 142 366.767 142 366.034L148.067 364.5C141.233 321.234 151.1 277.234 174.633 240.034C175.367 238.534 176.133 237.767 176.9 236.234L172.533 231.834C172.508 232.048 172.464 232.26 172.4 232.467V231.7L172.533 231.834C172.867 229.667 171.5 227 170.133 225.634C164.067 219.567 156.467 215 148.867 210.467L144.333 208.167C141.463 206.811 138.67 205.297 135.967 203.634C135.233 203.634 133.7 202.134 133.7 202.134C133.7 202.134 133.7 201.367 132.967 201.367C129.961 198.791 127.994 195.211 127.43 191.293C126.866 187.375 127.743 183.386 129.9 180.067C132.167 176.267 135.967 174.767 140.533 174.767C144.394 174.86 148.122 176.192 151.167 178.567L151.933 179.334C152.667 180.067 153.433 180.067 154.2 180.834C156.467 183.134 158 185.4 160.267 187.667C161.033 188.4 162.533 189.167 163.3 190.7C168.6 196.767 175.433 202.834 182.267 208.167C183.767 208.9 185.3 209.667 186.833 209.667C188.333 209.667 189.1 208.9 189.867 208.9H190.633L195.2 211.934C220.223 185.175 252.781 166.647 288.567 158.8C297.667 157.267 306 155.767 314.367 155L315.133 148.934V147.434C317.4 145.934 318.167 143.634 318.933 141.367C318.933 132.267 318.933 123.9 317.433 115.567V114.8C317.433 113.3 317.433 111.767 316.667 110.234C315.795 107.273 315.292 104.217 315.167 101.134V97.3669C315.167 93.5669 316.667 89.7669 319.733 86.7335C323.533 82.9335 328.067 80.6669 332.633 81.4335C336.404 81.9567 339.835 83.8939 342.23 86.8525C344.625 89.8112 345.806 93.5699 345.533 97.3669V101.934C344.767 104.967 344.767 108 344.033 111.034C344.033 112.534 343.267 114.067 343.267 115.567V116.334C341.667 125.434 341.667 133.8 341.667 142.134C342.433 144.4 343.167 146.667 345.467 148.2V147.434L346.233 153.5C382.146 157.251 416.308 170.915 444.9 192.967C451 199.034 457.8 205.1 463.867 211.167L469.967 207.367H470.7C471.433 208.134 472.967 208.134 473.733 208.134C475.267 208.134 476.767 207.367 478.3 206.634C485.133 202.067 491.967 196 497.267 189.934C498 189.167 499.533 188.4 500.3 186.9C501.833 184.634 504.1 182.334 506.4 180.067C507.133 180.067 507.9 179.334 508.667 178.567L509.4 177.8C512.443 175.445 516.154 174.114 520 174C523.8 174 528.367 176.267 530.633 179.334C535.933 186.167 534.4 195.267 527.6 200.567C527.6 201.334 528.333 201.334 527.6 202.1C526.833 202.834 526.067 202.834 525.333 203.6C522.267 205.1 520 206.634 516.967 208.167L512.4 210.434C504.844 214.799 497.722 219.878 491.133 225.6C489.633 227.134 488.867 230.167 488.867 232.434V233.2L484.333 237.767C496.467 256.734 505.6 278 510.9 300C515.467 322 516.967 344.767 513.933 366.767L520 368.3C520.469 369.507 521.186 370.603 522.105 371.515C523.024 372.428 524.123 373.138 525.333 373.6C533.667 375.867 542.767 377.4 551.1 378.167H551.867C553.31 378.768 554.875 379.02 556.433 378.9C559.467 378.9 562.5 378.9 565.5 379.667C567.033 379.667 568.567 379.667 568.567 380.434C568.567 381.167 569.3 381.167 570.067 381.167C573.737 382.047 577.035 384.066 579.49 386.933C581.945 389.801 583.43 393.371 583.733 397.134C582.589 400.229 580.533 402.905 577.838 404.809C575.142 406.713 571.933 407.756 568.633 407.8Z" fill="#C0C0C0"/>
<path d="M334.833 411.6C332.367 410.181 329.47 409.706 326.679 410.264C323.889 410.822 321.397 412.375 319.667 414.634L282.467 482.2C297.667 486.734 314.367 489.8 330.3 489.8C341.667 489.8 352.3 488.3 362.933 486C368.233 484.5 372.8 483.734 377.367 482.967L340.933 416.934C338.633 414.634 337.1 413.1 334.833 411.6ZM456.3 263.567L399.367 315.167C397.91 316.652 396.865 318.49 396.333 320.5C394.8 327.334 398.6 334.167 405.433 335.667L477.533 356.167C479.156 340.162 478.12 324 474.467 308.334C470.799 292.55 464.668 277.443 456.3 263.567ZM387.2 379.7C384.539 380.91 382.392 383.024 381.141 385.666C379.89 388.308 379.616 391.308 380.367 394.134L410 465.5C428.387 453.913 443.946 438.354 455.533 419.967C461.6 411.634 466.133 401.734 469.967 391.134L394.067 378.234C391.712 378.336 389.391 378.832 387.2 379.7Z" fill="#C0C0C0"/>
</svg>
