<svg width="45" height="45" viewBox="0 0 45 45" fill="none" xmlns="http://www.w3.org/2000/svg">
<g id="Linkedin">
<circle id="Ellipse 1" cx="22.5" cy="22.5" r="21.5" stroke="#8D5EFC" stroke-width="2"/>
<path id="Vector" d="M10.3378 11.3391C10.3378 10.5201 10.6118 9.84438 11.1596 9.31205C11.7074 8.77969 12.4197 8.51352 13.2962 8.51352C14.1571 8.51352 14.8536 8.77558 15.3858 9.29976C15.9337 9.8403 16.2076 10.5446 16.2076 11.4128C16.2076 12.199 15.9415 12.8542 15.4093 13.3784C14.8615 13.9189 14.1414 14.1892 13.2492 14.1892H13.2258C12.3649 14.1892 11.6683 13.9189 11.1361 13.3784C10.6039 12.8378 10.3378 12.1581 10.3378 11.3391ZM10.6431 32.8378V16.4251H15.8554V32.8378H10.6431ZM18.7433 32.8378H23.9557V23.6732C23.9557 23.0999 24.0183 22.6576 24.1435 22.3464C24.3627 21.7895 24.6953 21.3186 25.1414 20.9337C25.5875 20.5487 26.1471 20.3563 26.8201 20.3563C28.5733 20.3563 29.4498 21.593 29.4498 24.0663V32.8378H34.6622V23.4275C34.6622 21.0033 34.1143 19.1646 33.0186 17.9116C31.9229 16.6585 30.4751 16.0319 28.675 16.0319C26.6558 16.0319 25.0827 16.941 23.9557 18.7592V18.8084H23.9322L23.9557 18.7592V16.4251H18.7433C18.7746 16.9492 18.7903 18.579 18.7903 21.3145C18.7903 24.05 18.7746 27.8911 18.7433 32.8378Z" fill="#8D5EFC"/>
</g>
</svg>
