<svg width="800" height="800" viewBox="0 0 800 800" fill="none" xmlns="http://www.w3.org/2000/svg">
<g clip-path="url(#clip0_262_5)">
<path d="M400 800C620.914 800 800 620.914 800 400C800 179.086 620.914 0 400 0C179.086 0 0 179.086 0 400C0 620.914 179.086 800 400 800Z" fill="#9F9F9F"/>
<path d="M506.922 351.125C481.656 239.617 421.945 202.953 415.516 188.945C408.484 179.063 401.359 161.484 401.359 161.484C401.242 161.187 401.055 160.664 400.836 160.156C400.109 170.039 399.734 173.852 390.391 183.82C375.922 195.133 301.687 257.422 295.648 384.109C290.016 502.266 381 572.672 393.305 581.648L394.703 582.641V582.555C394.781 583.148 398.609 610.68 401.297 639.852H410.938C413.199 619.231 416.59 598.75 421.094 578.5L421.875 577.992C427.379 574.046 432.627 569.753 437.586 565.141L438.148 564.633C464.305 540.469 511.328 484.578 510.867 395.469C510.77 380.604 509.45 365.773 506.922 351.125ZM400.273 514.938C400.273 514.938 400.273 349.219 405.742 349.25C410.008 349.25 415.531 563.008 415.531 563.008C407.938 562.094 400.273 527.828 400.273 514.938Z" fill="black"/>
</g>
<defs>
<clipPath id="clip0_262_5">
<rect width="800" height="800" fill="white"/>
</clipPath>
</defs>
</svg>
