<svg width="287" height="286" viewBox="0 0 287 286" fill="none" xmlns="http://www.w3.org/2000/svg">
<rect width="287" height="286" rx="143" fill="#D9D9D9"/>
<path d="M228.1 196.29C217.226 196.019 208.799 197.107 201.731 200.097C199.692 200.912 196.43 200.913 196.158 203.495C197.246 204.583 197.381 206.35 198.333 207.845C199.965 210.562 202.818 214.233 205.401 216.136C208.255 218.311 211.11 220.485 214.1 222.388C219.401 225.651 225.382 227.553 230.547 230.816C233.538 232.717 236.527 235.165 239.517 237.204C241.013 238.291 241.964 240.058 243.867 240.738V240.33C242.915 239.107 242.643 237.34 241.692 235.981C240.334 234.621 238.974 233.398 237.615 232.039C233.673 226.738 228.78 222.116 223.479 218.311C219.13 215.32 209.614 211.243 207.847 206.213C207.847 206.213 207.711 206.078 207.575 205.942C210.566 205.67 214.1 204.583 216.954 203.767C221.576 202.543 225.789 202.815 230.547 201.592C232.721 201.048 234.896 200.369 237.071 199.689V198.466C234.625 196.019 232.857 192.758 230.275 190.447C223.343 184.465 215.731 178.621 207.847 173.728C203.633 171.01 198.196 169.242 193.711 166.932C192.081 166.115 189.362 165.709 188.411 164.349C185.964 161.359 184.604 157.418 182.837 153.883C178.897 146.407 175.09 138.117 171.692 130.233C169.246 124.932 167.751 119.631 164.76 114.738C150.76 91.6312 135.537 77.6313 112.158 63.9027C107.129 61.0487 101.149 59.825 94.7602 58.3302C91.363 58.1938 87.9641 57.9227 84.566 57.7862C82.3916 56.8346 80.2163 54.2526 78.3131 53.0289C70.5671 48.1352 50.5855 37.5343 44.8766 51.5341C41.2065 60.3691 50.3135 69.0676 53.4395 73.5537C55.7512 76.6797 58.7408 80.2133 60.372 83.7479C61.3237 86.057 61.5948 88.5051 62.5464 90.9515C64.7217 96.9307 66.7597 103.592 69.6146 109.165C71.1102 112.02 72.7406 115.01 74.6438 117.592C75.731 119.087 77.6334 119.767 78.0419 122.214C76.1395 124.932 76.0031 129.01 74.915 132.408C70.0221 147.767 71.9254 166.796 78.8571 178.077C81.0315 181.474 86.1972 188.952 93.1289 186.097C99.2454 183.651 97.8862 175.903 99.653 169.107C100.061 167.475 99.7895 166.388 100.605 165.301C100.605 165.437 100.605 165.573 100.605 165.573C102.508 169.379 104.41 173.049 106.177 176.854C110.391 183.514 117.73 190.447 123.847 195.068C127.11 197.514 129.692 201.728 133.77 203.224V202.815H133.498C132.682 201.592 131.459 201.048 130.372 200.097C127.925 197.65 125.206 194.66 123.304 191.941C117.596 184.329 112.566 175.903 108.08 167.204C105.906 162.99 104.003 158.369 102.236 154.155C101.42 152.523 101.42 150.078 100.061 149.262C98.0218 152.252 95.0322 154.835 93.5365 158.505C90.9554 164.349 90.6825 171.553 89.7309 179.029C89.1877 179.165 89.4589 179.029 89.1868 179.301C84.838 178.213 83.3424 173.728 81.7111 169.922C77.6334 160.272 76.9538 144.776 80.4883 133.631C81.4399 130.777 85.5176 121.806 83.8864 119.088C83.0712 116.505 80.3519 115.01 78.8571 112.971C77.0903 110.388 75.187 107.127 73.9642 104.272C70.7017 96.6605 69.0705 88.2331 65.5369 80.621C63.9057 77.0865 61.0516 73.4173 58.7408 70.1556C56.1588 66.4856 53.3039 63.9027 51.2651 59.553C50.5863 58.0582 49.6338 55.6118 50.721 53.9805C50.993 52.8933 51.5362 52.4858 52.6243 52.2137C54.3911 50.7181 59.4204 52.6213 61.1872 53.4365C66.2164 55.4745 70.4297 57.3786 74.6438 60.2326C76.5462 61.5918 78.585 64.1747 81.0314 64.8543H83.8863C88.236 65.8051 93.1288 65.1263 97.2065 66.3491C104.411 68.6591 110.934 72.058 116.78 75.7281C134.586 87.0094 149.264 103.049 159.188 122.214C160.819 125.339 161.498 128.195 162.993 131.456C165.848 138.117 169.382 144.913 172.236 151.437C175.09 157.825 177.808 164.35 181.886 169.651C183.926 172.504 192.08 174 195.75 175.495C198.468 176.718 202.683 177.806 205.129 179.301C209.75 182.154 214.372 185.417 218.721 188.543C220.896 190.174 227.692 193.573 228.1 196.29Z" fill="black"/>
<path d="M89.4582 78.1738C87.1473 78.1738 85.517 78.4467 83.8857 78.8543C83.8857 78.8543 83.8857 78.9907 83.8857 79.1263H84.1578C85.2458 81.3007 87.1474 82.7964 88.5066 84.6988C89.5946 86.8732 90.5454 89.0485 91.6335 91.2237C91.769 91.0873 91.9046 90.9517 91.9046 90.9517C93.8087 89.5916 94.7595 87.4172 94.7595 84.1556C93.9435 83.204 93.8079 82.2524 93.1283 81.3007C92.3131 79.9406 90.5454 79.2619 89.4582 78.1738Z" fill="#00546B"/>
</svg>
