<svg width="117" height="120" viewBox="0 0 117 120" fill="none" xmlns="http://www.w3.org/2000/svg">
<ellipse cx="58.18" cy="59.815" rx="58.18" ry="59.815" fill="#D9D9D9"/>
<path d="M96.4339 34.1391L61.8285 14.9973C60.5855 14.3437 59.1794 14 57.7486 14C56.3178 14 54.9117 14.3437 53.6687 14.9973L19.0611 34.137C17.814 34.8419 16.785 35.8315 16.0736 37.0103C15.3622 38.189 14.9925 39.517 15.0001 40.866V79.0943C14.9926 80.4441 15.3624 81.7729 16.0737 82.9526C16.785 84.1323 17.8139 85.1231 19.0611 85.8294L28.136 90.8274L28.1872 90.8541C32.7692 93.0163 34.5236 93.0163 36.5564 93.0163C43.7121 93.0163 48.1583 88.7453 48.1583 81.8684V44.8024C48.1624 44.3397 47.9674 43.8943 47.6159 43.564C47.2645 43.2337 46.7854 43.0455 46.2836 43.0406H41.3009C40.7991 43.0455 40.32 43.2337 39.9686 43.564C39.6171 43.8943 39.4221 44.3397 39.4262 44.8024V81.8684C39.4444 82.399 39.3135 82.925 39.0463 83.3952C38.779 83.8655 38.3846 84.264 37.9011 84.5522C36.5875 85.2914 34.6795 85.1354 32.5265 84.1107L23.8301 79.2832C23.7968 79.2622 23.7697 79.234 23.751 79.2011C23.7324 79.1681 23.7228 79.1314 23.7233 79.0943V41.4061C23.7247 41.3628 23.7374 41.3204 23.7602 41.2825C23.7831 41.2446 23.8154 41.2124 23.8546 41.1884L57.6607 22.0918C57.6859 22.0802 57.7137 22.0742 57.7419 22.0742C57.7701 22.0742 57.7979 22.0802 57.8232 22.0918L91.6493 41.1884C91.6877 41.2143 91.7189 41.2483 91.7402 41.2876C91.7616 41.3269 91.7723 41.3704 91.7717 41.4143V79.0943C91.7726 79.1332 91.764 79.1718 91.7467 79.2073C91.7294 79.2428 91.7037 79.2744 91.6715 79.2996L57.8165 97.9137C57.7588 97.9322 57.6961 97.9322 57.6384 97.9137L48.9932 93.1786C48.7365 93.0238 48.44 92.9345 48.1338 92.9197C47.8276 92.905 47.5227 92.9652 47.2499 93.0944L47.1742 93.1354C44.7875 94.4393 44.1463 94.7782 41.9332 95.5215C41.5725 95.6426 40.7242 95.9322 40.6508 96.7063C40.5773 97.4804 41.3833 98.0307 42.1002 98.4147L53.6553 104.959C54.8865 105.639 56.2945 105.999 57.7297 106H57.8588C59.2581 105.98 60.627 105.621 61.8285 104.959L96.4339 85.8356C97.6804 85.1271 98.7086 84.135 99.4198 82.9545C100.131 81.774 100.501 80.4447 100.495 79.0943V40.866C100.502 39.5174 100.132 38.1899 99.4205 37.0116C98.7092 35.8332 97.6805 34.8439 96.4339 34.1391Z" fill="#171133"/>
<path d="M69.2982 72.7389C60.9958 72.7389 59.2258 70.5993 58.7004 67.1455C58.6412 66.7342 58.4239 66.3563 58.088 66.0804C57.7521 65.8046 57.32 65.6491 56.8703 65.6424H52.4619C51.9651 65.6521 51.4927 65.8429 51.148 66.1731C50.8034 66.5033 50.6146 66.9459 50.6229 67.4042C50.6229 70.3981 51.7628 80.1702 69.3071 80.1702C74.7351 80.1702 79.2503 78.9998 82.3606 76.7841C85.4709 74.5685 87.1363 71.3447 87.1363 67.5028C87.1363 59.7922 81.6816 57.6813 70.939 56.3014C60.0184 54.901 60.0184 54.1885 60.0184 52.6279C60.0184 51.5047 60.0184 48.8743 67.9133 48.8743C73.5306 48.8743 76.5385 49.5293 77.5003 52.9811C77.5855 53.3638 77.8098 53.7082 78.1362 53.9572C78.4625 54.2063 78.8713 54.3451 79.2948 54.3507H83.7187C83.9795 54.3483 84.2366 54.2947 84.4731 54.1934C84.7096 54.0922 84.92 53.9456 85.0902 53.7634C85.4303 53.3972 85.6 52.922 85.5622 52.441C84.99 45.1412 79.2035 41.4389 67.92 41.4389C57.6651 41.4389 51.5447 45.6997 51.5447 52.8353C51.5447 60.6588 57.8877 62.8703 67.4168 63.7861C78.549 64.8477 78.549 66.396 78.549 67.7635C78.5556 69.895 77.5961 72.7389 69.2982 72.7389Z" fill="#181234"/>
</svg>
