<svg width="300" height="300" viewBox="0 0 300 300" fill="none" xmlns="http://www.w3.org/2000/svg">
<rect width="300" height="300" rx="150" fill="#D9D9D9"/>
<path d="M206.214 127.947C206.629 125.34 207.018 122.843 207.067 120.093C200.296 119.285 192.525 119.469 189.457 123.722C183.489 131.995 195.146 152.27 200.123 160.928C201.403 163.152 202.327 164.759 202.752 165.761C203.222 166.869 203.737 167.868 204.267 168.785C207.692 161.718 206.808 154.558 205.947 147.602C205.52 144.158 205.078 140.597 205.194 137.172C205.309 133.651 205.769 130.751 206.214 127.947ZM200.511 126.338C199.961 126.9 198.799 127.874 197.213 128.088C197.009 128.115 196.801 128.129 196.595 128.129C194.257 128.129 192.241 126.36 192.073 125.213C191.881 123.83 194.209 122.777 196.611 122.453C197.137 122.382 197.659 122.346 198.16 122.346C200.236 122.346 201.611 122.943 201.75 123.904C201.839 124.525 201.354 125.48 200.511 126.338ZM176.666 74.9981C180.944 74.1386 186.793 73.3366 193.343 73.476C209.937 73.8321 223.062 79.8533 232.356 91.3723C239.485 100.207 231.637 140.41 208.912 175.092C208.689 174.815 208.46 174.536 208.224 174.25C208.13 174.135 208.033 174.018 207.936 173.9C213.808 164.494 212.659 155.189 211.637 146.938C211.217 143.552 210.822 140.354 210.922 137.35C211.027 134.164 211.461 131.434 211.881 128.793C212.397 125.539 212.923 122.173 212.777 118.204C212.886 117.788 212.93 117.296 212.872 116.712C212.503 112.905 208.022 101.515 198.89 91.2036C193.896 85.5648 186.611 79.2548 176.666 74.9981ZM113.833 176.177C114.485 176.837 115.165 177.455 115.868 178.039C113.065 180.951 106.971 187.39 100.486 194.957C95.8975 200.309 92.7283 199.286 91.686 198.947C84.8955 196.75 77.0163 182.829 70.0697 160.753C64.0588 141.652 60.5453 122.446 60.2681 117.059C59.39 100.026 63.6468 88.1539 72.921 81.7746C88.0127 71.3926 112.828 77.6071 122.799 80.7589C122.655 80.8955 122.507 81.0239 122.365 81.1629C106.003 97.1911 106.391 124.575 106.432 126.248C106.429 126.894 106.486 127.808 106.562 129.066C106.843 133.671 107.368 142.243 105.968 151.952C104.668 160.973 107.534 169.802 113.833 176.177ZM205.273 179.643C202.031 180.551 196.21 182.644 196.741 193.109C196.315 198.356 193.271 222.94 191.726 231.629C189.687 243.106 185.331 247.381 173.091 249.926C160.398 252.565 155.907 246.282 152.945 239.103C151.034 234.466 150.096 213.563 150.76 190.479C150.77 190.173 150.725 189.876 150.637 189.598C150.562 189.06 150.445 188.515 150.282 187.966C149.292 184.606 146.877 181.798 143.98 180.633C143.073 180.268 141.703 179.719 140.017 179.719C139.394 179.719 138.781 179.795 138.177 179.947C138.719 177.784 139.658 175.343 140.675 172.698L141.102 171.586C141.582 170.331 142.186 169.032 142.824 167.655C146.272 160.226 150.995 150.048 145.87 127.058C143.95 118.447 137.538 114.242 127.821 115.218C121.994 115.804 116.665 118.084 114.006 119.391C113.432 119.673 112.906 119.946 112.416 120.211C113.149 111.547 115.941 95.359 126.439 85.0748C133.043 78.6047 141.838 75.4094 152.566 75.5812C173.676 75.9174 187.213 86.4251 194.853 95.1813C201.436 102.727 205.001 110.328 206.424 114.427C195.729 113.372 188.448 115.421 184.76 120.536C176.734 131.662 189.15 153.257 195.116 163.636C196.21 165.539 197.156 167.181 197.452 167.88C199.394 172.448 201.91 175.497 203.749 177.723C204.311 178.406 204.856 179.068 205.273 179.643ZM144.773 189.496C145.007 190.293 145.273 191.805 144.407 192.98C140.046 198.903 134.042 201.908 126.563 201.908C124.104 201.908 121.493 201.576 118.799 200.922C117.224 200.54 115.807 199.877 114.975 199.328C115.67 199.01 116.906 198.58 119.049 198.152C129.424 196.079 131.025 194.617 134.524 190.309C135.327 189.321 136.236 188.201 137.497 186.835C138.448 185.803 139.296 185.279 140.017 185.279C140.523 185.279 141.093 185.49 141.786 185.768C143.046 186.277 144.275 187.808 144.773 189.496ZM234.095 186.043C234.138 186.034 234.183 186.024 234.225 186.017C232.636 187.458 229.919 189.39 226.064 191.127C222.75 192.619 217.206 193.738 211.938 193.978C206.119 194.24 203.157 193.347 202.46 192.794C202.135 186.274 204.638 185.592 207.286 184.871C207.701 184.757 208.108 184.647 208.498 184.514C208.743 184.705 209.01 184.897 209.303 185.084C213.979 188.078 222.321 188.4 234.095 186.043ZM135.304 170.755L135.729 169.65C136.277 168.219 136.919 166.837 137.599 165.372C140.893 158.272 144.994 149.435 140.268 128.233C139.354 124.137 137.157 121.757 133.552 120.956C125.653 119.201 114.576 124.957 112.186 127.013C112.208 127.477 112.244 128.066 112.284 128.737C112.578 133.534 113.124 142.466 111.645 152.722C110.59 160.045 112.896 167.192 117.971 172.327C121.964 176.369 127.213 178.604 132.609 178.62C133.229 176.151 134.229 173.553 135.304 170.755ZM127.867 127.926C127.497 127.45 126.894 126.527 127.016 125.692C127.188 124.47 128.706 123.736 131.074 123.736C131.599 123.736 132.143 123.774 132.692 123.849C135.248 124.193 137.887 125.368 137.633 127.131C137.441 128.466 135.261 130.447 132.643 130.447C132.414 130.447 132.183 130.431 131.958 130.4C130.444 130.197 128.913 129.272 127.867 127.926ZM247.744 182.441C246.891 178.69 243.389 174.309 236.325 174.309C234.907 174.309 233.371 174.478 231.627 174.828C228.278 175.498 225.289 175.915 222.721 176.069C231.717 161.109 238.955 144.267 243.153 128.505C247.038 113.915 249.977 94.4259 241.92 84.4396C230.076 69.7593 212.755 62 191.829 62C180.035 62 170.403 64.5558 167.486 65.4208C162.887 64.6427 157.936 64.2067 152.765 64.1252C152.42 64.1198 152.078 64.1174 151.737 64.1174C142.433 64.1174 134.094 66.1671 126.947 70.2102C120.439 68.0963 107.873 64.6732 94.7858 64.6732C80.0649 64.6732 68.4705 68.8834 60.3266 77.1883C51.3099 86.3828 47.2049 100.107 48.1269 117.98C48.5127 125.474 52.9648 147.87 59.3388 167.317C69.1864 197.365 80.0339 211.359 93.4748 211.359C97.6831 211.359 101.677 209.93 105.358 207.111C108.585 210.522 113.27 212.063 115.847 212.688C119.502 213.576 123.106 214.025 126.559 214.025C131.174 214.025 135.521 213.244 139.497 211.7C139.522 212.538 139.546 213.333 139.566 214.049C139.614 215.678 139.659 217.276 139.721 218.77C140.141 228.927 140.857 236.83 142.985 242.402C143.098 242.695 143.247 243.141 143.41 243.624C144.34 246.39 145.746 250.567 148.979 254.359C153.242 259.358 159.316 262 166.543 262C168.851 262 171.323 261.73 173.893 261.195C181.66 259.582 190.483 257.115 196.901 248.253C202.918 239.943 205.837 227.509 206.365 207.936L206.598 206.01L207.718 206.099C208.427 206.131 209.161 206.145 209.9 206.145C217.435 206.145 225.784 204.577 231.175 202.149C235.654 200.131 250.091 192.749 247.744 182.441ZM228.479 196.169C223.844 198.256 216.458 199.576 210.055 199.576C206.984 199.576 204.144 199.27 201.936 198.603C200.891 207.921 198.669 225.295 197.376 232.576C194.954 246.191 188.699 252.367 174.293 255.363C171.84 255.872 169.61 256.099 167.585 256.101C153.78 256.102 149.411 245.503 147.623 241.168C145.439 235.87 144.68 218.486 144.834 200.843C139.878 205.193 133.664 207.468 126.563 207.468C123.635 207.468 120.556 207.082 117.409 206.318C116.499 206.097 108.518 204.019 108.624 199.07C108.721 194.54 115.384 193.208 117.893 192.706C126.711 190.944 127.281 190.243 130.021 186.87C130.575 186.186 131.226 185.387 132.02 184.475C132.011 184.374 131.999 184.274 131.993 184.173C128.039 184.07 124.173 183.048 120.654 181.216C118.274 183.674 111.813 190.439 104.894 198.512C100.729 203.369 96.7256 204.797 93.4599 204.797C92.1282 204.798 90.9197 204.56 89.8713 204.22C80.9204 201.326 72.4125 187.246 64.5866 162.377C58.6403 143.482 54.873 123.752 54.5425 117.337C53.5591 98.2736 58.631 84.7809 69.6165 77.2313C89.2858 63.7151 121.068 74.0943 128.002 76.6141C134.838 72.0936 143.091 69.8763 152.659 70.0223C157.873 70.1053 162.659 70.7558 167.051 71.8149C169.137 70.9268 179.9 67.7687 192.625 67.9045C211.146 68.0955 226.446 75.0251 236.87 87.9453C243.905 96.665 239.263 117.893 236.938 126.614C232.108 144.756 223.153 164.198 212.267 180.285C213.914 181.459 218.932 183.401 232.935 180.597C237.651 179.653 240.49 180.487 241.372 183.073C243.076 188.07 233.685 193.826 228.479 196.169Z" fill="black"/>
</svg>
