<svg width="117" height="120" viewBox="0 0 117 120" fill="none" xmlns="http://www.w3.org/2000/svg">
<ellipse cx="58.18" cy="59.815" rx="58.18" ry="59.815" fill="#D9D9D9"/>
<path fill-rule="evenodd" clip-rule="evenodd" d="M55.8 22C63.8 22 66.6 22.4 68.7 23.8C70.1 24.7 71.9 27 72.7 28.8C73.5 30.7 74 36.1 74 42.5C74 52.3 73.8 53.2 71.5 55.5C69.2 57.9 68.6 58 56 58C43.4 58 42.8 58.1 40.5 60.5C38.2 62.8 38 63.8 38 82H32.5C29.5 82 25.7 81.3 24 80.5C22.4 79.7 20.3 77.6 19.5 76C18.5 74 18 69.9 18 63.5C18 56.1 18.4 53.4 19.8 51.4C20.7 49.9 22.7 48.1 24.3 47.4C26.2 46.4 31.4 46 42.5 46C57.3 46 58 45.9 58 44C58 42.1 57.3 42 38 42V37C38 34.2 38.5 30.8 39 29.2C39.6 27.7 41.3 25.5 42.8 24.3C45.2 22.3 46.6 22 55.8 22ZM42.3 34.6C42.4 35.5 43.3 36.8 44.3 37.4C45.5 38.2 46.5 38.2 47.8 37.4C48.7 36.8 49.6 35.5 49.8 34.6C49.9 33.7 49.4 32.3 48.8 31.5C48.1 30.6 46.8 29.9 45.9 30C45 30 43.7 30.7 43.1 31.5C42.5 32.3 42.1 33.7 42.3 34.6ZM78 38H83.5C86.5 38 90.3 38.7 92 39.5C93.7 40.3 95.7 42.4 96.5 44C97.5 46 98 50.1 98 56.5C98 63.9 97.6 66.6 96.3 68.6C95.3 70.1 93.3 71.9 91.8 72.6C89.8 73.6 84.6 74 73.5 74C58.7 74 58 74.1 58 76C58 77.9 58.7 78 78 78V83C78 85.8 77.4 89.5 76.7 91.3C75.9 93 74.1 95.3 72.7 96.3C70.6 97.6 67.8 98 60 98C52.1 98 49.4 97.6 47.4 96.3C45.9 95.3 44.1 93.3 43.4 91.8C42.5 89.9 42 85.3 42 78C42 67.7 42.1 66.8 44.5 64.5C46.8 62.1 47.4 62 60 62C72.6 62 73.2 61.9 75.5 59.5C77.8 57.2 78 56.2 78 47.5V38ZM66.2 86.6C66.4 87.5 67.3 88.8 68.3 89.4C69.5 90.2 70.5 90.2 71.8 89.4C72.7 88.8 73.6 87.5 73.8 86.6C73.9 85.7 73.4 84.3 72.8 83.5C72.1 82.6 70.8 81.9 69.9 82C69 82 67.7 82.7 67.1 83.5C66.5 84.3 66.1 85.7 66.3 86.6H66.2Z" fill="#181234"/>
</svg>
