<svg width="117" height="120" viewBox="0 0 117 120" fill="none" xmlns="http://www.w3.org/2000/svg">
<ellipse cx="58.18" cy="59.815" rx="58.18" ry="59.815" fill="#D9D9D9"/>
<path fill-rule="evenodd" clip-rule="evenodd" d="M40.9645 17C44.2714 17 47.1775 18.0011 58 24.0074L64.3131 20.5037C68.8225 18.0011 71.7286 17 75.0355 17.1001C77.6409 17.1001 80.8476 17.8008 82.5511 18.902C84.2547 19.9031 86.5595 22.706 87.762 25.1086C89.4655 28.4121 90.0668 31.3152 90.0668 43.0276L93.8747 44.9296C95.8789 45.9306 99.286 48.6335 101.39 50.9359C103.395 53.1383 105.399 56.2416 105.699 57.8433C106.1 59.3449 106.1 62.0477 105.699 63.8496C105.399 65.5514 103.395 68.955 101.39 71.1574C99.286 73.4598 95.8789 76.1627 90.0668 79.0657V85.873C90.0668 90.7782 89.4655 93.6812 87.762 96.9847C86.5595 99.3873 84.2547 102.19 82.5511 103.191C80.8476 104.292 77.6409 104.993 75.0355 104.993C71.7286 105.093 68.8225 104.092 58 98.0859L51.7871 101.59C47.1775 104.092 44.2714 105.093 40.9645 104.993C38.3591 104.993 35.1524 104.292 33.4488 103.191C31.8455 102.19 29.4405 99.3873 28.238 96.9847C26.5344 93.6812 25.9332 90.7781 25.9332 79.0657L22.2255 77.1637C20.1211 76.1627 16.714 73.4598 14.7098 71.1574C12.6054 68.955 10.6013 65.8517 10.3006 64.3502C9.89979 62.7485 9.89979 60.0456 10.3006 58.3438C10.6013 56.5419 12.6054 53.1383 14.7098 50.9359C16.714 48.6335 20.1211 45.9306 25.9332 43.0276V36.3205C25.9332 31.7156 26.6347 28.2119 27.8372 25.509C28.9395 23.3067 31.2443 20.5037 33.1482 19.3024C35.3528 17.7675 37.9582 17 40.9645 17V17ZM33.8497 35.1192C33.9499 39.9243 34.0501 40.0244 36.7557 39.4238C38.2589 39.1234 40.5637 38.6229 41.9666 38.4227C43.3695 38.1224 46.1754 35.92 48.2797 33.5175L51.9875 29.0127C45.3737 25.9094 42.2672 25.0085 40.7641 25.0085C39.0605 25.0085 37.2568 26.0095 35.9541 27.6112C34.2505 29.6134 33.7495 31.5154 33.8497 35.1192ZM64.0125 29.0127C70.5261 36.7209 72.5303 38.1224 75.0355 38.5228C76.9395 38.8231 79.3445 39.3236 80.3465 39.624C81.7495 39.9243 82.0501 39.3236 82.0501 35.2193C82.1503 32.0159 81.4488 29.6134 80.0459 27.7113C78.7098 25.9094 77.1399 25.0085 75.3361 25.0085C73.7328 25.0085 70.6263 25.9094 68.3215 27.0106L64.0125 29.0127ZM58 37.0212C58.501 37.0212 59.0021 36.6208 59.0021 36.0201C59.0021 35.5196 58.7015 35.0191 58.501 35.0191C58.3006 35.0191 57.7996 35.5196 57.499 36.0201C57.1983 36.6208 57.3987 37.0212 58 37.0212ZM46.5762 48.7336C45.2735 50.8358 43.2693 54.4397 42.0668 56.8422L39.9624 61.0467C43.2693 67.6537 45.2735 71.2575 46.5762 73.3597L48.9812 77.0636L67.5198 76.5631C74.0334 64.9508 76.0376 61.347 76.0376 61.0467C76.0376 60.7463 74.0334 57.1425 71.7286 53.0382L67.5198 45.5302L48.9812 44.9296L46.5762 48.7336ZM36.6555 49.8348C37.0564 49.4344 37.0564 48.7336 36.6555 48.3332C36.1545 47.9328 35.8539 48.2331 35.8539 49.0339C35.8539 49.8348 36.1545 50.2352 36.6555 49.8348ZM79.7453 49.8348C80.1461 49.4344 80.1461 48.7336 79.7453 48.3332C79.2443 47.9328 78.9436 48.2331 78.9436 49.0339C78.9436 49.8348 79.2443 50.2352 79.7453 49.8348ZM19.62 57.2426C18.618 58.544 17.8163 60.2458 17.8163 61.0467C17.8163 61.8475 18.7182 63.8496 19.8205 65.3512C20.9228 66.8528 23.2276 68.7548 24.9311 69.5557L27.9374 71.0573C30.7432 61.6473 30.7432 60.446 29.4405 56.0414C28.6388 53.3385 27.8372 51.0361 27.6367 51.0361C27.5365 51.0361 26.0334 51.937 24.3299 52.9381C22.7265 54.0392 20.5219 55.9412 19.62 57.2426V57.2426ZM86.5595 56.0414C85.1566 60.5461 85.1566 61.5472 86.5595 66.052L88.0626 71.0573C92.6722 68.7548 94.977 66.8528 96.0793 65.3512C97.1816 63.8496 98.0835 61.8475 98.0835 61.0467C98.0835 60.2458 97.1816 58.3438 96.0793 56.8422C94.977 55.3406 92.6722 53.4386 91.0689 52.5376L88.1628 51.1362L86.5595 56.0414ZM36.6555 73.7601C37.0564 73.3597 37.0564 72.659 36.6555 72.2585C36.1545 71.8581 35.8539 72.1584 35.8539 72.9593C35.8539 73.8602 36.1545 74.1605 36.6555 73.7601ZM79.7453 73.7601C80.1461 73.3597 80.1461 72.659 79.7453 72.2585C79.2443 71.8581 78.9436 72.1584 78.9436 72.9593C78.9436 73.8602 79.2443 74.1605 79.7453 73.7601ZM35.8539 94.2819C37.2568 96.1839 38.7599 96.9847 40.6639 96.9847C42.167 96.9847 45.2735 95.9837 47.5783 94.7824L51.8873 92.48C45.6743 85.7728 43.0689 84.071 39.9624 83.2702C37.4572 82.5695 35.0522 82.0689 34.6514 82.0689C34.2505 82.0689 33.8497 84.1711 33.8497 86.7739C33.8497 89.9773 34.4509 92.3798 35.8539 94.2819ZM67.5198 88.776L63.9123 92.9805C70.5261 96.0838 73.7328 96.9847 75.2359 96.9847C77.0397 96.9847 78.643 96.0838 80.0459 94.2819C81.4488 92.3798 82.0501 89.9773 82.0501 86.7739C82.0501 84.1711 81.6493 82.0689 81.2484 82.0689C80.8476 82.169 78.3424 82.7697 75.7369 83.3703C72.1294 84.2713 70.2255 85.5726 67.5198 88.776V88.776ZM58.4008 86.9741C58.7015 86.9741 58.9019 86.5737 58.9019 85.9731C58.9019 85.4725 58.4008 84.972 57.7996 84.972C57.1983 84.972 56.9979 85.4725 57.2985 85.9731C57.6994 86.5737 58.2004 86.9741 58.4008 86.9741ZM59.4029 49.4344C62.2088 49.7347 64.4134 50.8358 66.4175 52.9381C69.023 55.5408 69.4238 56.8422 69.4238 60.9466C69.4238 65.2511 69.023 66.4524 66.2171 69.2554C63.4113 72.0583 62.2088 72.4587 57.8998 72.4587C53.691 72.4587 52.4885 72.0583 49.6827 69.2554C46.8768 66.4524 46.3758 65.2511 46.3758 61.0467C46.3758 57.3427 46.977 55.4407 48.7808 53.4386C50.0835 51.937 52.0877 50.3353 53.2902 49.8348C54.4927 49.3342 57.1983 49.2341 59.4029 49.4344V49.4344Z" fill="#181234"/>
</svg>
