<svg width="69" height="68" viewBox="0 0 69 68" fill="none" xmlns="http://www.w3.org/2000/svg">
<path fill-rule="evenodd" clip-rule="evenodd" d="M23.7687 2.91577C24.6825 2.91577 25.0252 3.25241 24.6825 3.81348C24.2256 4.26234 23.5403 4.26234 23.0834 3.70127C22.5123 3.25241 22.855 2.91577 23.7687 2.91577ZM26.7385 2.91577C27.0811 2.91577 27.3096 3.1402 27.3096 3.47684C27.3096 3.81348 27.0811 4.03791 26.7385 4.03791C26.3958 4.03791 26.1674 3.81348 26.1674 3.47684C26.1674 3.1402 26.3958 2.91577 26.7385 2.91577ZM18.6288 4.7112C19.5426 5.27227 19.5426 5.72112 18.5146 6.73105C17.4866 7.62876 17.6008 8.63869 18.9715 10.7708C20.5706 13.3517 20.5706 13.4639 18.8573 11.3318C17.8293 10.0975 17.0297 9.31197 17.0297 9.64861C16.9155 9.98525 18.2862 12.5662 19.8853 15.596C21.7889 19.112 23.1976 20.5708 24.1114 19.9723C25.1013 19.4486 25.2917 19.6357 24.6825 20.5334C24.2256 21.3189 24.6825 23.5631 25.5963 25.3586C26.51 27.154 27.7665 28.5006 28.4518 28.1639C29.1371 27.8273 29.2513 28.3883 28.7944 29.6227C28.1091 31.0815 28.2233 31.3059 29.594 30.4082C30.8504 29.6227 31.0788 29.6227 30.3935 30.7448C29.9366 31.5303 31.65 36.0189 34.3912 41.293C37.9321 48.3624 39.1885 51.9533 39.1885 56.2174C39.1885 59.2472 38.8458 63.1747 38.389 64.8579C37.7036 67.6632 37.0183 67.9999 32.7922 67.9999C30.0509 67.9999 25.5963 67.3266 22.7408 66.3167C19.8853 65.419 15.088 62.5014 12.0041 59.9205C8.9201 57.2273 5.15083 52.5144 3.55174 49.4846C1.72422 45.8937 0.467796 41.1807 0.125135 36.58C-0.217526 31.6426 0.125135 27.4906 1.38156 23.6754C2.40954 20.5334 4.80817 16.0448 6.74991 13.6883C8.69166 11.3318 11.7756 8.18983 13.7174 6.73105C15.6591 5.27227 17.8293 4.37455 18.6288 4.7112ZM21.0275 4.03791C21.3701 4.03791 21.5986 4.26234 21.5986 4.59898C21.5986 4.93562 21.3701 5.16005 21.0275 5.16005C20.6848 5.16005 20.4564 4.93562 20.4564 4.59898C20.4564 4.26234 20.6848 4.03791 21.0275 4.03791ZM27.8807 5.16005C28.2233 5.16005 28.4518 5.38448 28.4518 5.72112C28.4518 6.05776 28.2233 6.28219 27.8807 6.28219C27.538 6.28219 27.3096 6.05776 27.3096 5.72112C27.3096 5.38448 27.538 5.16005 27.8807 5.16005ZM28.9087 7.40433C29.2513 7.40433 29.8224 7.85319 30.1651 8.52647C30.5077 9.19976 30.5077 9.64861 30.1651 9.64861C29.8224 9.64861 29.2513 9.19976 28.9087 8.52647C28.566 7.85319 28.566 7.40433 28.9087 7.40433ZM31.3073 10.7708C31.65 10.7708 31.8784 10.9952 31.8784 11.3318C31.8784 11.6685 31.65 11.8929 31.3073 11.8929C30.9646 11.8929 30.7362 11.6685 30.7362 11.3318C30.7362 10.9952 30.9646 10.7708 31.3073 10.7708ZM32.3353 13.015C32.6779 13.015 33.249 13.4639 33.5917 14.1372C33.9344 14.8105 33.9344 15.2593 33.5917 15.2593C33.249 15.2593 32.6779 14.8105 32.3353 14.1372C31.9926 13.4639 31.9926 13.015 32.3353 13.015ZM21.0275 14.1372C21.3701 14.1372 21.5986 14.3616 21.5986 14.6982C21.5986 15.0349 21.3701 15.2593 21.0275 15.2593C20.6848 15.2593 20.4564 15.0349 20.4564 14.6982C20.4564 14.3616 20.6848 14.1372 21.0275 14.1372ZM22.0554 16.3815C22.3981 16.3815 22.9692 16.8303 23.3119 17.5036C23.6545 18.1769 23.6545 18.6257 23.3119 18.6257C22.9692 18.6257 22.3981 18.1769 22.0554 17.5036C21.7128 16.8303 21.7128 16.3815 22.0554 16.3815ZM34.7339 16.3815C35.0766 16.3815 35.305 16.6059 35.305 16.9425C35.305 17.2792 35.0766 17.5036 34.7339 17.5036C34.3912 17.5036 34.1628 17.2792 34.1628 16.9425C34.1628 16.6059 34.3912 16.3815 34.7339 16.3815ZM37.0183 19.7479C37.361 19.7479 37.5894 19.9723 37.5894 20.3089C37.5894 20.6456 37.361 20.87 37.0183 20.87C36.6756 20.87 36.4472 20.6456 36.4472 20.3089C36.4472 19.9723 36.6756 19.7479 37.0183 19.7479ZM62.1468 19.7479C62.4894 19.7479 62.7179 19.9723 62.7179 20.3089C62.7179 20.6456 62.4894 20.87 62.1468 20.87C61.8041 20.87 61.5757 20.6456 61.5757 20.3089C61.5757 19.9723 61.8041 19.7479 62.1468 19.7479ZM64.4312 19.7479C64.7738 19.7479 65.0023 19.9723 65.0023 20.3089C65.0023 20.6456 64.7738 20.87 64.4312 20.87C64.0885 20.87 63.8601 20.6456 63.8601 20.3089C63.8601 19.9723 64.0885 19.7479 64.4312 19.7479ZM25.5963 21.9921C25.9389 21.9921 26.1674 22.2166 26.1674 22.5532C26.1674 22.8899 25.9389 23.1143 25.5963 23.1143C25.2536 23.1143 25.0252 22.8899 25.0252 22.5532C25.0252 22.2166 25.2536 21.9921 25.5963 21.9921ZM61.0046 21.9921C61.3472 21.9921 61.5757 22.2166 61.5757 22.5532C61.5757 22.8899 61.3472 23.1143 61.0046 23.1143C60.6619 23.1143 60.4335 22.8899 60.4335 22.5532C60.4335 22.2166 60.6619 21.9921 61.0046 21.9921ZM65.5734 21.9921C65.9161 21.9921 66.1445 22.2166 66.1445 22.5532C66.1445 22.8899 65.9161 23.1143 65.5734 23.1143C65.2307 23.1143 65.0023 22.8899 65.0023 22.5532C65.0023 22.2166 65.2307 21.9921 65.5734 21.9921ZM39.3027 23.1143C39.6454 23.1143 39.8738 23.3387 39.8738 23.6754C39.8738 24.012 39.6454 24.2364 39.3027 24.2364C38.9601 24.2364 38.7316 24.012 38.7316 23.6754C38.7316 23.3387 38.9601 23.1143 39.3027 23.1143ZM26.6243 24.2364C26.9669 24.2364 27.538 24.6853 27.8807 25.3586C28.2233 26.0319 28.2233 26.4807 27.8807 26.4807C27.538 26.4807 26.9669 26.0319 26.6243 25.3586C26.2816 24.6853 26.2816 24.2364 26.6243 24.2364ZM40.4449 25.3586C40.7876 25.3586 41.016 25.583 41.016 25.9196C41.016 26.2563 40.7876 26.4807 40.4449 26.4807C40.1023 26.4807 39.8738 26.2563 39.8738 25.9196C39.8738 25.583 40.1023 25.3586 40.4449 25.3586ZM66.7156 25.3586C67.0583 25.3586 67.2867 25.583 67.2867 25.9196C67.2867 26.2563 67.0583 26.4807 66.7156 26.4807C66.3729 26.4807 66.1445 26.2563 66.1445 25.9196C66.1445 25.583 66.3729 25.3586 66.7156 25.3586ZM57.578 27.6028C57.9206 27.6028 58.1491 27.8273 58.1491 28.1639C58.1491 28.5006 57.9206 28.725 57.578 28.725C57.2353 28.725 57.0069 28.5006 57.0069 28.1639C57.0069 27.8273 57.2353 27.6028 57.578 27.6028ZM42.7293 28.725C43.072 28.725 43.3004 28.9494 43.3004 29.2861C43.3004 29.6227 43.072 29.8471 42.7293 29.8471C42.3867 29.8471 42.1582 29.6227 42.1582 29.2861C42.1582 28.9494 42.3867 28.725 42.7293 28.725ZM56.4358 29.8471C56.7784 29.8471 57.0069 30.0716 57.0069 30.4082C57.0069 30.7448 56.7784 30.9693 56.4358 30.9693C56.0931 30.9693 55.8647 30.7448 55.8647 30.4082C55.8647 30.0716 56.0931 29.8471 56.4358 29.8471ZM68.0862 30.4082C68.3147 31.0815 68.3147 32.3158 68.0862 33.2136C67.7436 34.1113 67.5151 33.6624 67.5151 32.0914C67.5151 30.5204 67.7436 29.7349 68.0862 30.4082ZM43.8715 30.9693C44.2142 30.9693 44.4426 31.1937 44.4426 31.5303C44.4426 31.867 44.2142 32.0914 43.8715 32.0914C43.5289 32.0914 43.3004 31.867 43.3004 31.5303C43.3004 31.1937 43.5289 30.9693 43.8715 30.9693ZM55.2936 32.0914C55.6362 32.0914 55.8647 32.3158 55.8647 32.6525C55.8647 32.9891 55.6362 33.2136 55.2936 33.2136C54.9509 33.2136 54.7225 32.9891 54.7225 32.6525C54.7225 32.3158 54.9509 32.0914 55.2936 32.0914ZM32.4495 33.2136C32.7922 33.2136 33.0206 33.438 33.0206 33.7746C33.0206 34.1113 32.7922 34.3357 32.4495 34.3357C32.1068 34.3357 31.8784 34.1113 31.8784 33.7746C31.8784 33.438 32.1068 33.2136 32.4495 33.2136ZM54.1514 34.3357C54.494 34.3357 54.7225 34.5601 54.7225 34.8968C54.7225 35.2334 54.494 35.4578 54.1514 35.4578C53.8087 35.4578 53.5803 35.2334 53.5803 34.8968C53.5803 34.5601 53.8087 34.3357 54.1514 34.3357ZM33.5917 35.4578C33.9344 35.4578 34.1628 35.6823 34.1628 36.0189C34.1628 36.3555 33.9344 36.58 33.5917 36.58C33.249 36.58 33.0206 36.3555 33.0206 36.0189C33.0206 35.6823 33.249 35.4578 33.5917 35.4578ZM66.7156 35.4578C67.0583 35.4578 67.2867 35.6823 67.2867 36.0189C67.2867 36.3555 67.0583 36.58 66.7156 36.58C66.3729 36.58 66.1445 36.3555 66.1445 36.0189C66.1445 35.6823 66.3729 35.4578 66.7156 35.4578ZM47.2981 36.58C47.6408 36.58 47.8692 36.8044 47.8692 37.141C47.8692 37.4777 47.6408 37.7021 47.2981 37.7021C46.9555 37.7021 46.727 37.4777 46.727 37.141C46.727 36.8044 46.9555 36.58 47.2981 36.58ZM53.0092 36.58C53.3518 36.58 53.5803 36.8044 53.5803 37.141C53.5803 37.4777 53.3518 37.7021 53.0092 37.7021C52.6665 37.7021 52.4381 37.4777 52.4381 37.141C52.4381 36.8044 52.6665 36.58 53.0092 36.58ZM35.8761 38.8242C36.2188 38.8242 36.4472 39.0487 36.4472 39.3853C36.4472 39.722 36.2188 39.9464 35.8761 39.9464C35.5334 39.9464 35.305 39.722 35.305 39.3853C35.305 39.0487 35.5334 38.8242 35.8761 38.8242ZM51.867 38.8242C52.2096 38.8242 52.4381 39.0487 52.4381 39.3853C52.4381 39.722 52.2096 39.9464 51.867 39.9464C51.5243 39.9464 51.2959 39.722 51.2959 39.3853C51.2959 39.0487 51.5243 38.8242 51.867 38.8242ZM64.4312 38.8242C64.7738 38.8242 65.0023 39.0487 65.0023 39.3853C65.0023 39.722 64.7738 39.9464 64.4312 39.9464C64.0885 39.9464 63.8601 39.722 63.8601 39.3853C63.8601 39.0487 64.0885 38.8242 64.4312 38.8242ZM37.0183 41.0685C37.361 41.0685 37.5894 41.293 37.5894 41.6296C37.5894 41.9662 37.361 42.1907 37.0183 42.1907C36.6756 42.1907 36.4472 41.9662 36.4472 41.6296C36.4472 41.293 36.6756 41.0685 37.0183 41.0685ZM63.289 41.0685C63.6316 41.0685 63.8601 41.293 63.8601 41.6296C63.8601 41.9662 63.6316 42.1907 63.289 42.1907C62.9463 42.1907 62.7179 41.9662 62.7179 41.6296C62.7179 41.293 62.9463 41.0685 63.289 41.0685ZM38.0463 43.3128C38.389 43.3128 38.9601 43.8739 39.3027 44.4349C39.6454 44.996 39.6454 45.5571 39.3027 45.5571C38.9601 45.5571 38.389 44.996 38.0463 44.4349C37.7036 43.8739 37.7036 43.3128 38.0463 43.3128ZM61.0046 44.4349C61.3472 44.4349 61.5757 44.6594 61.5757 44.996C61.5757 45.3327 61.3472 45.5571 61.0046 45.5571C60.6619 45.5571 60.4335 45.3327 60.4335 44.996C60.4335 44.6594 60.6619 44.4349 61.0046 44.4349ZM40.4449 46.6792C40.7876 46.6792 41.016 46.9037 41.016 47.2403C41.016 47.5769 40.7876 47.8014 40.4449 47.8014C40.1023 47.8014 39.8738 47.5769 39.8738 47.2403C39.8738 46.9037 40.1023 46.6792 40.4449 46.6792ZM59.8624 46.6792C60.205 46.6792 60.4335 46.9037 60.4335 47.2403C60.4335 47.5769 60.205 47.8014 59.8624 47.8014C59.5197 47.8014 59.2913 47.5769 59.2913 47.2403C59.2913 46.9037 59.5197 46.6792 59.8624 46.6792ZM41.4729 48.9235C41.8156 48.9235 42.3867 49.4846 42.7293 50.0456C43.072 50.6067 43.072 51.1678 42.7293 51.1678C42.3867 51.1678 41.8156 50.6067 41.4729 50.0456C41.1302 49.4846 41.1302 48.9235 41.4729 48.9235ZM57.578 50.0456C57.9206 50.0456 58.1491 50.2701 58.1491 50.6067C58.1491 50.9434 57.9206 51.1678 57.578 51.1678C57.2353 51.1678 57.0069 50.9434 57.0069 50.6067C57.0069 50.2701 57.2353 50.0456 57.578 50.0456ZM43.8715 52.2899C44.2142 52.2899 44.4426 52.5144 44.4426 52.851C44.4426 53.1876 44.2142 53.4121 43.8715 53.4121C43.5289 53.4121 43.3004 53.1876 43.3004 52.851C43.3004 52.5144 43.5289 52.2899 43.8715 52.2899ZM56.4358 52.2899C56.7784 52.2899 57.0069 52.5144 57.0069 52.851C57.0069 53.1876 56.3215 53.7487 55.6362 54.1976C54.6463 54.796 54.4559 54.609 55.0651 53.6365C55.522 52.9632 56.2073 52.2899 56.4358 52.2899ZM46.1559 55.6563C46.4986 55.6563 46.727 55.8808 46.727 56.2174C46.727 56.5541 46.4986 56.7785 46.1559 56.7785C45.8133 56.7785 45.5848 56.5541 45.5848 56.2174C45.5848 55.8808 45.8133 55.6563 46.1559 55.6563ZM54.1514 55.6563C54.494 55.6563 54.7225 55.8808 54.7225 56.2174C54.7225 56.5541 54.494 56.7785 54.1514 56.7785C53.8087 56.7785 53.5803 56.5541 53.5803 56.2174C53.5803 55.8808 53.8087 55.6563 54.1514 55.6563ZM47.2981 57.9006C47.6408 57.9006 47.8692 58.1251 47.8692 58.4617C47.8692 58.7983 47.6408 59.0228 47.2981 59.0228C46.9555 59.0228 46.727 58.7983 46.727 58.4617C46.727 58.1251 46.9555 57.9006 47.2981 57.9006ZM51.867 59.0228C52.2096 59.0228 52.4381 59.2472 52.4381 59.5838C52.4381 59.9205 52.2096 60.1449 51.867 60.1449C51.5243 60.1449 51.2959 59.9205 51.2959 59.5838C51.2959 59.2472 51.5243 59.0228 51.867 59.0228ZM50.0394 61.267C50.9532 61.267 51.2958 61.6037 50.9532 62.1648C50.4963 62.6136 49.811 62.5014 49.3541 62.0525C48.783 61.6037 49.1257 61.267 50.0394 61.267Z" fill="#414446"/>
<path d="M18.1719 4.7113C19.0857 3.70137 22.3981 2.13037 25.5962 1.23266C28.9086 0.222737 33.8201 -0.226119 37.2467 0.110523C40.5591 0.447165 45.9275 1.79373 49.1256 3.25251C52.438 4.59908 57.0068 7.85329 59.4054 10.5464C61.9183 13.1273 65.0022 17.3915 66.3729 19.9724C68.4289 23.7877 69 26.7052 69 33.7747C69 41.1808 68.4289 43.7618 65.916 48.9236C64.2027 52.5145 60.6619 57.1152 57.3495 59.9206C54.3798 62.5015 49.5825 65.4191 46.727 66.3168C43.8715 67.3267 40.6733 68 39.6453 68C37.932 68 37.7036 67.4389 38.3889 64.858C38.8458 63.1748 39.1884 59.2473 39.1884 56.2175C39.1884 51.8412 37.932 48.3625 33.9343 40.5076C31.0788 34.8969 26.0531 25.9197 22.8549 20.309C19.6568 14.6983 17.1439 10.0976 17.2581 9.98535C17.4866 9.87314 19.1999 12.3418 21.1416 15.5961C23.0834 18.8503 30.2793 30.6327 37.1325 41.9663C43.9857 53.1877 49.8109 62.3893 50.1536 62.3893C50.4963 62.3893 54.7224 55.7687 68.4289 33.2136L67.2867 27.8274C66.6013 24.9098 65.4591 21.5434 64.5454 20.309C63.1747 18.177 62.7178 18.738 57.8064 27.6029C54.9509 32.877 52.3238 38.0388 51.9811 39.0488C51.6385 40.1709 50.9531 41.0686 50.4963 41.0686C49.9252 40.9564 44.4426 32.4282 38.1605 21.9923C31.8783 11.5563 26.0531 2.91587 25.3678 2.91587C24.5682 2.91587 22.1696 3.70137 20.2279 4.7113C16.687 6.39451 16.5728 6.39451 18.1719 4.7113Z" fill="#0D0D0D"/>
<path d="M18.4004 6.39462C19.1999 5.83355 21.1416 4.82362 22.7407 4.26255C24.2256 3.70148 25.8247 3.47706 26.1673 3.92591C26.6242 4.26255 31.0788 11.1076 36.1045 19.187C41.1302 27.2664 46.1559 35.458 47.4123 37.4779C48.5545 39.4977 49.9252 41.0687 50.382 41.0687C50.9531 41.0687 54.0371 35.9069 63.2889 18.2893L65.2307 22.6656C66.3729 25.1344 67.1724 28.8374 67.1724 30.9695C67.1724 33.887 65.1165 38.3756 58.9486 48.026C54.3798 55.3199 50.4963 61.2673 50.1536 61.2673C49.8109 61.3795 45.699 55.2077 41.1302 47.5772C36.4472 39.9466 29.0228 27.8275 24.7967 20.6458C18.9715 10.6588 17.3724 7.18012 18.4004 6.39462Z" fill="#76B7D0"/>
<path d="M18.743 6.28242C18.4004 6.28242 18.1719 6.05799 18.1719 5.72135C18.1719 5.38471 18.4004 5.16028 18.743 5.16028C19.0857 5.16028 19.3141 5.38471 19.3141 5.72135C19.3141 6.05799 19.0857 6.28242 18.743 6.28242Z" fill="#414446"/>
<path d="M3.43752 25.9197C4.12284 23.451 5.49348 20.309 6.40724 18.9624V18.8502C7.32101 17.5036 8.57743 16.3815 9.14853 16.3815C9.71963 16.3815 10.1765 16.4937 10.1765 16.6059C10.1765 16.8303 8.92009 19.9723 7.32101 23.6754C5.72192 27.6029 4.4655 32.6525 4.4655 36.0189C4.4655 39.0487 5.26504 43.9861 6.1788 46.9037C7.09257 49.9335 7.32101 52.0655 6.74991 51.7289C6.1788 51.3922 4.80816 48.4747 3.8944 45.3327C2.98063 42.0785 2.18109 37.3655 2.18109 34.8968C2.18109 32.4281 2.75219 28.3884 3.43752 25.9197Z" fill="#76B7D0"/>
</svg>
